%TF.GenerationSoftware,KiCad,Pcbnew,10.0.5*%
%TF.CreationDate,2026-07-26T20:00:49-07:00*%
%TF.ProjectId,Chopper_head,43686f70-7065-4725-9f68-6561642e6b69,rev?*%
%TF.SameCoordinates,Original*%
%TF.FileFunction,Legend,Top*%
%TF.FilePolarity,Positive*%
%FSLAX46Y46*%
G04 Gerber Fmt 4.6, Leading zero omitted, Abs format (unit mm)*
G04 Created by KiCad (PCBNEW 10.0.5) date 2026-07-26 20:00:49*
%MOMM*%
%LPD*%
G01*
G04 APERTURE LIST*
%ADD10C,0.150000*%
%ADD11C,0.100000*%
%ADD12C,0.120000*%
%ADD13C,0.200000*%
G04 APERTURE END LIST*
D10*
X158074819Y-103833333D02*
X158789104Y-103833333D01*
X158789104Y-103833333D02*
X158931961Y-103880952D01*
X158931961Y-103880952D02*
X159027200Y-103976190D01*
X159027200Y-103976190D02*
X159074819Y-104119047D01*
X159074819Y-104119047D02*
X159074819Y-104214285D01*
X159074819Y-102833333D02*
X159074819Y-103404761D01*
X159074819Y-103119047D02*
X158074819Y-103119047D01*
X158074819Y-103119047D02*
X158217676Y-103214285D01*
X158217676Y-103214285D02*
X158312914Y-103309523D01*
X158312914Y-103309523D02*
X158360533Y-103404761D01*
X158074819Y-72833333D02*
X158789104Y-72833333D01*
X158789104Y-72833333D02*
X158931961Y-72880952D01*
X158931961Y-72880952D02*
X159027200Y-72976190D01*
X159027200Y-72976190D02*
X159074819Y-73119047D01*
X159074819Y-73119047D02*
X159074819Y-73214285D01*
X158408152Y-71928571D02*
X159074819Y-71928571D01*
X158027200Y-72166666D02*
X158741485Y-72404761D01*
X158741485Y-72404761D02*
X158741485Y-71785714D01*
X119371666Y-129039819D02*
X119371666Y-129754104D01*
X119371666Y-129754104D02*
X119324047Y-129896961D01*
X119324047Y-129896961D02*
X119228809Y-129992200D01*
X119228809Y-129992200D02*
X119085952Y-130039819D01*
X119085952Y-130039819D02*
X118990714Y-130039819D01*
X120276428Y-129039819D02*
X120085952Y-129039819D01*
X120085952Y-129039819D02*
X119990714Y-129087438D01*
X119990714Y-129087438D02*
X119943095Y-129135057D01*
X119943095Y-129135057D02*
X119847857Y-129277914D01*
X119847857Y-129277914D02*
X119800238Y-129468390D01*
X119800238Y-129468390D02*
X119800238Y-129849342D01*
X119800238Y-129849342D02*
X119847857Y-129944580D01*
X119847857Y-129944580D02*
X119895476Y-129992200D01*
X119895476Y-129992200D02*
X119990714Y-130039819D01*
X119990714Y-130039819D02*
X120181190Y-130039819D01*
X120181190Y-130039819D02*
X120276428Y-129992200D01*
X120276428Y-129992200D02*
X120324047Y-129944580D01*
X120324047Y-129944580D02*
X120371666Y-129849342D01*
X120371666Y-129849342D02*
X120371666Y-129611247D01*
X120371666Y-129611247D02*
X120324047Y-129516009D01*
X120324047Y-129516009D02*
X120276428Y-129468390D01*
X120276428Y-129468390D02*
X120181190Y-129420771D01*
X120181190Y-129420771D02*
X119990714Y-129420771D01*
X119990714Y-129420771D02*
X119895476Y-129468390D01*
X119895476Y-129468390D02*
X119847857Y-129516009D01*
X119847857Y-129516009D02*
X119800238Y-129611247D01*
X158074819Y-83333333D02*
X158789104Y-83333333D01*
X158789104Y-83333333D02*
X158931961Y-83380952D01*
X158931961Y-83380952D02*
X159027200Y-83476190D01*
X159027200Y-83476190D02*
X159074819Y-83619047D01*
X159074819Y-83619047D02*
X159074819Y-83714285D01*
X158170057Y-82904761D02*
X158122438Y-82857142D01*
X158122438Y-82857142D02*
X158074819Y-82761904D01*
X158074819Y-82761904D02*
X158074819Y-82523809D01*
X158074819Y-82523809D02*
X158122438Y-82428571D01*
X158122438Y-82428571D02*
X158170057Y-82380952D01*
X158170057Y-82380952D02*
X158265295Y-82333333D01*
X158265295Y-82333333D02*
X158360533Y-82333333D01*
X158360533Y-82333333D02*
X158503390Y-82380952D01*
X158503390Y-82380952D02*
X159074819Y-82952380D01*
X159074819Y-82952380D02*
X159074819Y-82333333D01*
X158074819Y-114833333D02*
X158789104Y-114833333D01*
X158789104Y-114833333D02*
X158931961Y-114880952D01*
X158931961Y-114880952D02*
X159027200Y-114976190D01*
X159027200Y-114976190D02*
X159074819Y-115119047D01*
X159074819Y-115119047D02*
X159074819Y-115214285D01*
X158074819Y-113880952D02*
X158074819Y-114357142D01*
X158074819Y-114357142D02*
X158551009Y-114404761D01*
X158551009Y-114404761D02*
X158503390Y-114357142D01*
X158503390Y-114357142D02*
X158455771Y-114261904D01*
X158455771Y-114261904D02*
X158455771Y-114023809D01*
X158455771Y-114023809D02*
X158503390Y-113928571D01*
X158503390Y-113928571D02*
X158551009Y-113880952D01*
X158551009Y-113880952D02*
X158646247Y-113833333D01*
X158646247Y-113833333D02*
X158884342Y-113833333D01*
X158884342Y-113833333D02*
X158979580Y-113880952D01*
X158979580Y-113880952D02*
X159027200Y-113928571D01*
X159027200Y-113928571D02*
X159074819Y-114023809D01*
X159074819Y-114023809D02*
X159074819Y-114261904D01*
X159074819Y-114261904D02*
X159027200Y-114357142D01*
X159027200Y-114357142D02*
X158979580Y-114404761D01*
X158074819Y-93333333D02*
X158789104Y-93333333D01*
X158789104Y-93333333D02*
X158931961Y-93380952D01*
X158931961Y-93380952D02*
X159027200Y-93476190D01*
X159027200Y-93476190D02*
X159074819Y-93619047D01*
X159074819Y-93619047D02*
X159074819Y-93714285D01*
X158074819Y-92952380D02*
X158074819Y-92333333D01*
X158074819Y-92333333D02*
X158455771Y-92666666D01*
X158455771Y-92666666D02*
X158455771Y-92523809D01*
X158455771Y-92523809D02*
X158503390Y-92428571D01*
X158503390Y-92428571D02*
X158551009Y-92380952D01*
X158551009Y-92380952D02*
X158646247Y-92333333D01*
X158646247Y-92333333D02*
X158884342Y-92333333D01*
X158884342Y-92333333D02*
X158979580Y-92380952D01*
X158979580Y-92380952D02*
X159027200Y-92428571D01*
X159027200Y-92428571D02*
X159074819Y-92523809D01*
X159074819Y-92523809D02*
X159074819Y-92809523D01*
X159074819Y-92809523D02*
X159027200Y-92904761D01*
X159027200Y-92904761D02*
X158979580Y-92952380D01*
X132333333Y-125874819D02*
X132000000Y-125398628D01*
X131761905Y-125874819D02*
X131761905Y-124874819D01*
X131761905Y-124874819D02*
X132142857Y-124874819D01*
X132142857Y-124874819D02*
X132238095Y-124922438D01*
X132238095Y-124922438D02*
X132285714Y-124970057D01*
X132285714Y-124970057D02*
X132333333Y-125065295D01*
X132333333Y-125065295D02*
X132333333Y-125208152D01*
X132333333Y-125208152D02*
X132285714Y-125303390D01*
X132285714Y-125303390D02*
X132238095Y-125351009D01*
X132238095Y-125351009D02*
X132142857Y-125398628D01*
X132142857Y-125398628D02*
X131761905Y-125398628D01*
X132714286Y-124970057D02*
X132761905Y-124922438D01*
X132761905Y-124922438D02*
X132857143Y-124874819D01*
X132857143Y-124874819D02*
X133095238Y-124874819D01*
X133095238Y-124874819D02*
X133190476Y-124922438D01*
X133190476Y-124922438D02*
X133238095Y-124970057D01*
X133238095Y-124970057D02*
X133285714Y-125065295D01*
X133285714Y-125065295D02*
X133285714Y-125160533D01*
X133285714Y-125160533D02*
X133238095Y-125303390D01*
X133238095Y-125303390D02*
X132666667Y-125874819D01*
X132666667Y-125874819D02*
X133285714Y-125874819D01*
X148143333Y-129374819D02*
X147810000Y-128898628D01*
X147571905Y-129374819D02*
X147571905Y-128374819D01*
X147571905Y-128374819D02*
X147952857Y-128374819D01*
X147952857Y-128374819D02*
X148048095Y-128422438D01*
X148048095Y-128422438D02*
X148095714Y-128470057D01*
X148095714Y-128470057D02*
X148143333Y-128565295D01*
X148143333Y-128565295D02*
X148143333Y-128708152D01*
X148143333Y-128708152D02*
X148095714Y-128803390D01*
X148095714Y-128803390D02*
X148048095Y-128851009D01*
X148048095Y-128851009D02*
X147952857Y-128898628D01*
X147952857Y-128898628D02*
X147571905Y-128898628D01*
X149095714Y-129374819D02*
X148524286Y-129374819D01*
X148810000Y-129374819D02*
X148810000Y-128374819D01*
X148810000Y-128374819D02*
X148714762Y-128517676D01*
X148714762Y-128517676D02*
X148619524Y-128612914D01*
X148619524Y-128612914D02*
X148524286Y-128660533D01*
X163874819Y-127333333D02*
X164589104Y-127333333D01*
X164589104Y-127333333D02*
X164731961Y-127380952D01*
X164731961Y-127380952D02*
X164827200Y-127476190D01*
X164827200Y-127476190D02*
X164874819Y-127619047D01*
X164874819Y-127619047D02*
X164874819Y-127714285D01*
X164303390Y-126714285D02*
X164255771Y-126809523D01*
X164255771Y-126809523D02*
X164208152Y-126857142D01*
X164208152Y-126857142D02*
X164112914Y-126904761D01*
X164112914Y-126904761D02*
X164065295Y-126904761D01*
X164065295Y-126904761D02*
X163970057Y-126857142D01*
X163970057Y-126857142D02*
X163922438Y-126809523D01*
X163922438Y-126809523D02*
X163874819Y-126714285D01*
X163874819Y-126714285D02*
X163874819Y-126523809D01*
X163874819Y-126523809D02*
X163922438Y-126428571D01*
X163922438Y-126428571D02*
X163970057Y-126380952D01*
X163970057Y-126380952D02*
X164065295Y-126333333D01*
X164065295Y-126333333D02*
X164112914Y-126333333D01*
X164112914Y-126333333D02*
X164208152Y-126380952D01*
X164208152Y-126380952D02*
X164255771Y-126428571D01*
X164255771Y-126428571D02*
X164303390Y-126523809D01*
X164303390Y-126523809D02*
X164303390Y-126714285D01*
X164303390Y-126714285D02*
X164351009Y-126809523D01*
X164351009Y-126809523D02*
X164398628Y-126857142D01*
X164398628Y-126857142D02*
X164493866Y-126904761D01*
X164493866Y-126904761D02*
X164684342Y-126904761D01*
X164684342Y-126904761D02*
X164779580Y-126857142D01*
X164779580Y-126857142D02*
X164827200Y-126809523D01*
X164827200Y-126809523D02*
X164874819Y-126714285D01*
X164874819Y-126714285D02*
X164874819Y-126523809D01*
X164874819Y-126523809D02*
X164827200Y-126428571D01*
X164827200Y-126428571D02*
X164779580Y-126380952D01*
X164779580Y-126380952D02*
X164684342Y-126333333D01*
X164684342Y-126333333D02*
X164493866Y-126333333D01*
X164493866Y-126333333D02*
X164398628Y-126380952D01*
X164398628Y-126380952D02*
X164351009Y-126428571D01*
X164351009Y-126428571D02*
X164303390Y-126523809D01*
X139795260Y-89152431D02*
X139747640Y-89057193D01*
X139747640Y-89057193D02*
X139747640Y-88866717D01*
X139747640Y-88866717D02*
X139795260Y-88771479D01*
X139795260Y-88771479D02*
X139842879Y-88723860D01*
X139842879Y-88723860D02*
X139938117Y-88676241D01*
X139938117Y-88676241D02*
X140223831Y-88676241D01*
X140223831Y-88676241D02*
X140319069Y-88723860D01*
X140319069Y-88723860D02*
X140366688Y-88771479D01*
X140366688Y-88771479D02*
X140414307Y-88866717D01*
X140414307Y-88866717D02*
X140414307Y-89057193D01*
X140414307Y-89057193D02*
X140366688Y-89152431D01*
X139747640Y-89581003D02*
X140747640Y-89581003D01*
X139747640Y-90009574D02*
X140271450Y-90009574D01*
X140271450Y-90009574D02*
X140366688Y-89961955D01*
X140366688Y-89961955D02*
X140414307Y-89866717D01*
X140414307Y-89866717D02*
X140414307Y-89723860D01*
X140414307Y-89723860D02*
X140366688Y-89628622D01*
X140366688Y-89628622D02*
X140319069Y-89581003D01*
X139747640Y-90628622D02*
X139795260Y-90533384D01*
X139795260Y-90533384D02*
X139842879Y-90485765D01*
X139842879Y-90485765D02*
X139938117Y-90438146D01*
X139938117Y-90438146D02*
X140223831Y-90438146D01*
X140223831Y-90438146D02*
X140319069Y-90485765D01*
X140319069Y-90485765D02*
X140366688Y-90533384D01*
X140366688Y-90533384D02*
X140414307Y-90628622D01*
X140414307Y-90628622D02*
X140414307Y-90771479D01*
X140414307Y-90771479D02*
X140366688Y-90866717D01*
X140366688Y-90866717D02*
X140319069Y-90914336D01*
X140319069Y-90914336D02*
X140223831Y-90961955D01*
X140223831Y-90961955D02*
X139938117Y-90961955D01*
X139938117Y-90961955D02*
X139842879Y-90914336D01*
X139842879Y-90914336D02*
X139795260Y-90866717D01*
X139795260Y-90866717D02*
X139747640Y-90771479D01*
X139747640Y-90771479D02*
X139747640Y-90628622D01*
X140414307Y-91390527D02*
X139414307Y-91390527D01*
X140366688Y-91390527D02*
X140414307Y-91485765D01*
X140414307Y-91485765D02*
X140414307Y-91676241D01*
X140414307Y-91676241D02*
X140366688Y-91771479D01*
X140366688Y-91771479D02*
X140319069Y-91819098D01*
X140319069Y-91819098D02*
X140223831Y-91866717D01*
X140223831Y-91866717D02*
X139938117Y-91866717D01*
X139938117Y-91866717D02*
X139842879Y-91819098D01*
X139842879Y-91819098D02*
X139795260Y-91771479D01*
X139795260Y-91771479D02*
X139747640Y-91676241D01*
X139747640Y-91676241D02*
X139747640Y-91485765D01*
X139747640Y-91485765D02*
X139795260Y-91390527D01*
X140414307Y-92295289D02*
X139414307Y-92295289D01*
X140366688Y-92295289D02*
X140414307Y-92390527D01*
X140414307Y-92390527D02*
X140414307Y-92581003D01*
X140414307Y-92581003D02*
X140366688Y-92676241D01*
X140366688Y-92676241D02*
X140319069Y-92723860D01*
X140319069Y-92723860D02*
X140223831Y-92771479D01*
X140223831Y-92771479D02*
X139938117Y-92771479D01*
X139938117Y-92771479D02*
X139842879Y-92723860D01*
X139842879Y-92723860D02*
X139795260Y-92676241D01*
X139795260Y-92676241D02*
X139747640Y-92581003D01*
X139747640Y-92581003D02*
X139747640Y-92390527D01*
X139747640Y-92390527D02*
X139795260Y-92295289D01*
X139795260Y-93581003D02*
X139747640Y-93485765D01*
X139747640Y-93485765D02*
X139747640Y-93295289D01*
X139747640Y-93295289D02*
X139795260Y-93200051D01*
X139795260Y-93200051D02*
X139890498Y-93152432D01*
X139890498Y-93152432D02*
X140271450Y-93152432D01*
X140271450Y-93152432D02*
X140366688Y-93200051D01*
X140366688Y-93200051D02*
X140414307Y-93295289D01*
X140414307Y-93295289D02*
X140414307Y-93485765D01*
X140414307Y-93485765D02*
X140366688Y-93581003D01*
X140366688Y-93581003D02*
X140271450Y-93628622D01*
X140271450Y-93628622D02*
X140176212Y-93628622D01*
X140176212Y-93628622D02*
X140080974Y-93152432D01*
X139747640Y-94057194D02*
X140414307Y-94057194D01*
X140223831Y-94057194D02*
X140319069Y-94104813D01*
X140319069Y-94104813D02*
X140366688Y-94152432D01*
X140366688Y-94152432D02*
X140414307Y-94247670D01*
X140414307Y-94247670D02*
X140414307Y-94342908D01*
X139652402Y-94438147D02*
X139652402Y-95200051D01*
X139747640Y-95438147D02*
X140747640Y-95438147D01*
X139747640Y-95866718D02*
X140271450Y-95866718D01*
X140271450Y-95866718D02*
X140366688Y-95819099D01*
X140366688Y-95819099D02*
X140414307Y-95723861D01*
X140414307Y-95723861D02*
X140414307Y-95581004D01*
X140414307Y-95581004D02*
X140366688Y-95485766D01*
X140366688Y-95485766D02*
X140319069Y-95438147D01*
X139795260Y-96723861D02*
X139747640Y-96628623D01*
X139747640Y-96628623D02*
X139747640Y-96438147D01*
X139747640Y-96438147D02*
X139795260Y-96342909D01*
X139795260Y-96342909D02*
X139890498Y-96295290D01*
X139890498Y-96295290D02*
X140271450Y-96295290D01*
X140271450Y-96295290D02*
X140366688Y-96342909D01*
X140366688Y-96342909D02*
X140414307Y-96438147D01*
X140414307Y-96438147D02*
X140414307Y-96628623D01*
X140414307Y-96628623D02*
X140366688Y-96723861D01*
X140366688Y-96723861D02*
X140271450Y-96771480D01*
X140271450Y-96771480D02*
X140176212Y-96771480D01*
X140176212Y-96771480D02*
X140080974Y-96295290D01*
X139747640Y-97628623D02*
X140271450Y-97628623D01*
X140271450Y-97628623D02*
X140366688Y-97581004D01*
X140366688Y-97581004D02*
X140414307Y-97485766D01*
X140414307Y-97485766D02*
X140414307Y-97295290D01*
X140414307Y-97295290D02*
X140366688Y-97200052D01*
X139795260Y-97628623D02*
X139747640Y-97533385D01*
X139747640Y-97533385D02*
X139747640Y-97295290D01*
X139747640Y-97295290D02*
X139795260Y-97200052D01*
X139795260Y-97200052D02*
X139890498Y-97152433D01*
X139890498Y-97152433D02*
X139985736Y-97152433D01*
X139985736Y-97152433D02*
X140080974Y-97200052D01*
X140080974Y-97200052D02*
X140128593Y-97295290D01*
X140128593Y-97295290D02*
X140128593Y-97533385D01*
X140128593Y-97533385D02*
X140176212Y-97628623D01*
X139747640Y-98533385D02*
X140747640Y-98533385D01*
X139795260Y-98533385D02*
X139747640Y-98438147D01*
X139747640Y-98438147D02*
X139747640Y-98247671D01*
X139747640Y-98247671D02*
X139795260Y-98152433D01*
X139795260Y-98152433D02*
X139842879Y-98104814D01*
X139842879Y-98104814D02*
X139938117Y-98057195D01*
X139938117Y-98057195D02*
X140223831Y-98057195D01*
X140223831Y-98057195D02*
X140319069Y-98104814D01*
X140319069Y-98104814D02*
X140366688Y-98152433D01*
X140366688Y-98152433D02*
X140414307Y-98247671D01*
X140414307Y-98247671D02*
X140414307Y-98438147D01*
X140414307Y-98438147D02*
X140366688Y-98533385D01*
X139747640Y-99533385D02*
X139747640Y-98961957D01*
X139747640Y-99247671D02*
X140747640Y-99247671D01*
X140747640Y-99247671D02*
X140604783Y-99152433D01*
X140604783Y-99152433D02*
X140509545Y-99057195D01*
X140509545Y-99057195D02*
X140461926Y-98961957D01*
D11*
X128257693Y-77348609D02*
X128624360Y-77348609D01*
X128781503Y-77872419D02*
X128257693Y-77872419D01*
X128257693Y-77872419D02*
X128257693Y-76872419D01*
X128257693Y-76872419D02*
X128781503Y-76872419D01*
X129252931Y-77872419D02*
X129252931Y-76872419D01*
X129252931Y-76872419D02*
X129881503Y-77872419D01*
X129881503Y-77872419D02*
X129881503Y-76872419D01*
X128833884Y-79420038D02*
X128729122Y-79372419D01*
X128729122Y-79372419D02*
X128571979Y-79372419D01*
X128571979Y-79372419D02*
X128414836Y-79420038D01*
X128414836Y-79420038D02*
X128310074Y-79515276D01*
X128310074Y-79515276D02*
X128257693Y-79610514D01*
X128257693Y-79610514D02*
X128205312Y-79800990D01*
X128205312Y-79800990D02*
X128205312Y-79943847D01*
X128205312Y-79943847D02*
X128257693Y-80134323D01*
X128257693Y-80134323D02*
X128310074Y-80229561D01*
X128310074Y-80229561D02*
X128414836Y-80324800D01*
X128414836Y-80324800D02*
X128571979Y-80372419D01*
X128571979Y-80372419D02*
X128676741Y-80372419D01*
X128676741Y-80372419D02*
X128833884Y-80324800D01*
X128833884Y-80324800D02*
X128886265Y-80277180D01*
X128886265Y-80277180D02*
X128886265Y-79943847D01*
X128886265Y-79943847D02*
X128676741Y-79943847D01*
X129357693Y-80372419D02*
X129357693Y-79372419D01*
X129357693Y-79372419D02*
X129776741Y-79372419D01*
X129776741Y-79372419D02*
X129881503Y-79420038D01*
X129881503Y-79420038D02*
X129933884Y-79467657D01*
X129933884Y-79467657D02*
X129986265Y-79562895D01*
X129986265Y-79562895D02*
X129986265Y-79705752D01*
X129986265Y-79705752D02*
X129933884Y-79800990D01*
X129933884Y-79800990D02*
X129881503Y-79848609D01*
X129881503Y-79848609D02*
X129776741Y-79896228D01*
X129776741Y-79896228D02*
X129357693Y-79896228D01*
X130457693Y-80372419D02*
X130457693Y-79372419D01*
X131191027Y-79372419D02*
X131400551Y-79372419D01*
X131400551Y-79372419D02*
X131505313Y-79420038D01*
X131505313Y-79420038D02*
X131610075Y-79515276D01*
X131610075Y-79515276D02*
X131662456Y-79705752D01*
X131662456Y-79705752D02*
X131662456Y-80039085D01*
X131662456Y-80039085D02*
X131610075Y-80229561D01*
X131610075Y-80229561D02*
X131505313Y-80324800D01*
X131505313Y-80324800D02*
X131400551Y-80372419D01*
X131400551Y-80372419D02*
X131191027Y-80372419D01*
X131191027Y-80372419D02*
X131086265Y-80324800D01*
X131086265Y-80324800D02*
X130981503Y-80229561D01*
X130981503Y-80229561D02*
X130929122Y-80039085D01*
X130929122Y-80039085D02*
X130929122Y-79705752D01*
X130929122Y-79705752D02*
X130981503Y-79515276D01*
X130981503Y-79515276D02*
X131086265Y-79420038D01*
X131086265Y-79420038D02*
X131191027Y-79372419D01*
X132029122Y-79372419D02*
X132710075Y-79372419D01*
X132710075Y-79372419D02*
X132343408Y-79753371D01*
X132343408Y-79753371D02*
X132500551Y-79753371D01*
X132500551Y-79753371D02*
X132605313Y-79800990D01*
X132605313Y-79800990D02*
X132657694Y-79848609D01*
X132657694Y-79848609D02*
X132710075Y-79943847D01*
X132710075Y-79943847D02*
X132710075Y-80181942D01*
X132710075Y-80181942D02*
X132657694Y-80277180D01*
X132657694Y-80277180D02*
X132605313Y-80324800D01*
X132605313Y-80324800D02*
X132500551Y-80372419D01*
X132500551Y-80372419D02*
X132186265Y-80372419D01*
X132186265Y-80372419D02*
X132081503Y-80324800D01*
X132081503Y-80324800D02*
X132029122Y-80277180D01*
X133652932Y-79372419D02*
X133443408Y-79372419D01*
X133443408Y-79372419D02*
X133338646Y-79420038D01*
X133338646Y-79420038D02*
X133286265Y-79467657D01*
X133286265Y-79467657D02*
X133181503Y-79610514D01*
X133181503Y-79610514D02*
X133129122Y-79800990D01*
X133129122Y-79800990D02*
X133129122Y-80181942D01*
X133129122Y-80181942D02*
X133181503Y-80277180D01*
X133181503Y-80277180D02*
X133233884Y-80324800D01*
X133233884Y-80324800D02*
X133338646Y-80372419D01*
X133338646Y-80372419D02*
X133548170Y-80372419D01*
X133548170Y-80372419D02*
X133652932Y-80324800D01*
X133652932Y-80324800D02*
X133705313Y-80277180D01*
X133705313Y-80277180D02*
X133757694Y-80181942D01*
X133757694Y-80181942D02*
X133757694Y-79943847D01*
X133757694Y-79943847D02*
X133705313Y-79848609D01*
X133705313Y-79848609D02*
X133652932Y-79800990D01*
X133652932Y-79800990D02*
X133548170Y-79753371D01*
X133548170Y-79753371D02*
X133338646Y-79753371D01*
X133338646Y-79753371D02*
X133233884Y-79800990D01*
X133233884Y-79800990D02*
X133181503Y-79848609D01*
X133181503Y-79848609D02*
X133129122Y-79943847D01*
X128833884Y-81920038D02*
X128729122Y-81872419D01*
X128729122Y-81872419D02*
X128571979Y-81872419D01*
X128571979Y-81872419D02*
X128414836Y-81920038D01*
X128414836Y-81920038D02*
X128310074Y-82015276D01*
X128310074Y-82015276D02*
X128257693Y-82110514D01*
X128257693Y-82110514D02*
X128205312Y-82300990D01*
X128205312Y-82300990D02*
X128205312Y-82443847D01*
X128205312Y-82443847D02*
X128257693Y-82634323D01*
X128257693Y-82634323D02*
X128310074Y-82729561D01*
X128310074Y-82729561D02*
X128414836Y-82824800D01*
X128414836Y-82824800D02*
X128571979Y-82872419D01*
X128571979Y-82872419D02*
X128676741Y-82872419D01*
X128676741Y-82872419D02*
X128833884Y-82824800D01*
X128833884Y-82824800D02*
X128886265Y-82777180D01*
X128886265Y-82777180D02*
X128886265Y-82443847D01*
X128886265Y-82443847D02*
X128676741Y-82443847D01*
X129357693Y-82872419D02*
X129357693Y-81872419D01*
X129357693Y-81872419D02*
X129776741Y-81872419D01*
X129776741Y-81872419D02*
X129881503Y-81920038D01*
X129881503Y-81920038D02*
X129933884Y-81967657D01*
X129933884Y-81967657D02*
X129986265Y-82062895D01*
X129986265Y-82062895D02*
X129986265Y-82205752D01*
X129986265Y-82205752D02*
X129933884Y-82300990D01*
X129933884Y-82300990D02*
X129881503Y-82348609D01*
X129881503Y-82348609D02*
X129776741Y-82396228D01*
X129776741Y-82396228D02*
X129357693Y-82396228D01*
X130457693Y-82872419D02*
X130457693Y-81872419D01*
X131191027Y-81872419D02*
X131400551Y-81872419D01*
X131400551Y-81872419D02*
X131505313Y-81920038D01*
X131505313Y-81920038D02*
X131610075Y-82015276D01*
X131610075Y-82015276D02*
X131662456Y-82205752D01*
X131662456Y-82205752D02*
X131662456Y-82539085D01*
X131662456Y-82539085D02*
X131610075Y-82729561D01*
X131610075Y-82729561D02*
X131505313Y-82824800D01*
X131505313Y-82824800D02*
X131400551Y-82872419D01*
X131400551Y-82872419D02*
X131191027Y-82872419D01*
X131191027Y-82872419D02*
X131086265Y-82824800D01*
X131086265Y-82824800D02*
X130981503Y-82729561D01*
X130981503Y-82729561D02*
X130929122Y-82539085D01*
X130929122Y-82539085D02*
X130929122Y-82205752D01*
X130929122Y-82205752D02*
X130981503Y-82015276D01*
X130981503Y-82015276D02*
X131086265Y-81920038D01*
X131086265Y-81920038D02*
X131191027Y-81872419D01*
X132029122Y-81872419D02*
X132710075Y-81872419D01*
X132710075Y-81872419D02*
X132343408Y-82253371D01*
X132343408Y-82253371D02*
X132500551Y-82253371D01*
X132500551Y-82253371D02*
X132605313Y-82300990D01*
X132605313Y-82300990D02*
X132657694Y-82348609D01*
X132657694Y-82348609D02*
X132710075Y-82443847D01*
X132710075Y-82443847D02*
X132710075Y-82681942D01*
X132710075Y-82681942D02*
X132657694Y-82777180D01*
X132657694Y-82777180D02*
X132605313Y-82824800D01*
X132605313Y-82824800D02*
X132500551Y-82872419D01*
X132500551Y-82872419D02*
X132186265Y-82872419D01*
X132186265Y-82872419D02*
X132081503Y-82824800D01*
X132081503Y-82824800D02*
X132029122Y-82777180D01*
X133233884Y-82872419D02*
X133443408Y-82872419D01*
X133443408Y-82872419D02*
X133548170Y-82824800D01*
X133548170Y-82824800D02*
X133600551Y-82777180D01*
X133600551Y-82777180D02*
X133705313Y-82634323D01*
X133705313Y-82634323D02*
X133757694Y-82443847D01*
X133757694Y-82443847D02*
X133757694Y-82062895D01*
X133757694Y-82062895D02*
X133705313Y-81967657D01*
X133705313Y-81967657D02*
X133652932Y-81920038D01*
X133652932Y-81920038D02*
X133548170Y-81872419D01*
X133548170Y-81872419D02*
X133338646Y-81872419D01*
X133338646Y-81872419D02*
X133233884Y-81920038D01*
X133233884Y-81920038D02*
X133181503Y-81967657D01*
X133181503Y-81967657D02*
X133129122Y-82062895D01*
X133129122Y-82062895D02*
X133129122Y-82300990D01*
X133129122Y-82300990D02*
X133181503Y-82396228D01*
X133181503Y-82396228D02*
X133233884Y-82443847D01*
X133233884Y-82443847D02*
X133338646Y-82491466D01*
X133338646Y-82491466D02*
X133548170Y-82491466D01*
X133548170Y-82491466D02*
X133652932Y-82443847D01*
X133652932Y-82443847D02*
X133705313Y-82396228D01*
X133705313Y-82396228D02*
X133757694Y-82300990D01*
X128833884Y-84420038D02*
X128729122Y-84372419D01*
X128729122Y-84372419D02*
X128571979Y-84372419D01*
X128571979Y-84372419D02*
X128414836Y-84420038D01*
X128414836Y-84420038D02*
X128310074Y-84515276D01*
X128310074Y-84515276D02*
X128257693Y-84610514D01*
X128257693Y-84610514D02*
X128205312Y-84800990D01*
X128205312Y-84800990D02*
X128205312Y-84943847D01*
X128205312Y-84943847D02*
X128257693Y-85134323D01*
X128257693Y-85134323D02*
X128310074Y-85229561D01*
X128310074Y-85229561D02*
X128414836Y-85324800D01*
X128414836Y-85324800D02*
X128571979Y-85372419D01*
X128571979Y-85372419D02*
X128676741Y-85372419D01*
X128676741Y-85372419D02*
X128833884Y-85324800D01*
X128833884Y-85324800D02*
X128886265Y-85277180D01*
X128886265Y-85277180D02*
X128886265Y-84943847D01*
X128886265Y-84943847D02*
X128676741Y-84943847D01*
X129357693Y-85372419D02*
X129357693Y-84372419D01*
X129357693Y-84372419D02*
X129776741Y-84372419D01*
X129776741Y-84372419D02*
X129881503Y-84420038D01*
X129881503Y-84420038D02*
X129933884Y-84467657D01*
X129933884Y-84467657D02*
X129986265Y-84562895D01*
X129986265Y-84562895D02*
X129986265Y-84705752D01*
X129986265Y-84705752D02*
X129933884Y-84800990D01*
X129933884Y-84800990D02*
X129881503Y-84848609D01*
X129881503Y-84848609D02*
X129776741Y-84896228D01*
X129776741Y-84896228D02*
X129357693Y-84896228D01*
X130457693Y-85372419D02*
X130457693Y-84372419D01*
X131191027Y-84372419D02*
X131400551Y-84372419D01*
X131400551Y-84372419D02*
X131505313Y-84420038D01*
X131505313Y-84420038D02*
X131610075Y-84515276D01*
X131610075Y-84515276D02*
X131662456Y-84705752D01*
X131662456Y-84705752D02*
X131662456Y-85039085D01*
X131662456Y-85039085D02*
X131610075Y-85229561D01*
X131610075Y-85229561D02*
X131505313Y-85324800D01*
X131505313Y-85324800D02*
X131400551Y-85372419D01*
X131400551Y-85372419D02*
X131191027Y-85372419D01*
X131191027Y-85372419D02*
X131086265Y-85324800D01*
X131086265Y-85324800D02*
X130981503Y-85229561D01*
X130981503Y-85229561D02*
X130929122Y-85039085D01*
X130929122Y-85039085D02*
X130929122Y-84705752D01*
X130929122Y-84705752D02*
X130981503Y-84515276D01*
X130981503Y-84515276D02*
X131086265Y-84420038D01*
X131086265Y-84420038D02*
X131191027Y-84372419D01*
X132029122Y-84372419D02*
X132710075Y-84372419D01*
X132710075Y-84372419D02*
X132343408Y-84753371D01*
X132343408Y-84753371D02*
X132500551Y-84753371D01*
X132500551Y-84753371D02*
X132605313Y-84800990D01*
X132605313Y-84800990D02*
X132657694Y-84848609D01*
X132657694Y-84848609D02*
X132710075Y-84943847D01*
X132710075Y-84943847D02*
X132710075Y-85181942D01*
X132710075Y-85181942D02*
X132657694Y-85277180D01*
X132657694Y-85277180D02*
X132605313Y-85324800D01*
X132605313Y-85324800D02*
X132500551Y-85372419D01*
X132500551Y-85372419D02*
X132186265Y-85372419D01*
X132186265Y-85372419D02*
X132081503Y-85324800D01*
X132081503Y-85324800D02*
X132029122Y-85277180D01*
X133652932Y-84705752D02*
X133652932Y-85372419D01*
X133391027Y-84324800D02*
X133129122Y-85039085D01*
X133129122Y-85039085D02*
X133810075Y-85039085D01*
X128833884Y-86920038D02*
X128729122Y-86872419D01*
X128729122Y-86872419D02*
X128571979Y-86872419D01*
X128571979Y-86872419D02*
X128414836Y-86920038D01*
X128414836Y-86920038D02*
X128310074Y-87015276D01*
X128310074Y-87015276D02*
X128257693Y-87110514D01*
X128257693Y-87110514D02*
X128205312Y-87300990D01*
X128205312Y-87300990D02*
X128205312Y-87443847D01*
X128205312Y-87443847D02*
X128257693Y-87634323D01*
X128257693Y-87634323D02*
X128310074Y-87729561D01*
X128310074Y-87729561D02*
X128414836Y-87824800D01*
X128414836Y-87824800D02*
X128571979Y-87872419D01*
X128571979Y-87872419D02*
X128676741Y-87872419D01*
X128676741Y-87872419D02*
X128833884Y-87824800D01*
X128833884Y-87824800D02*
X128886265Y-87777180D01*
X128886265Y-87777180D02*
X128886265Y-87443847D01*
X128886265Y-87443847D02*
X128676741Y-87443847D01*
X129357693Y-87872419D02*
X129357693Y-86872419D01*
X129357693Y-86872419D02*
X129776741Y-86872419D01*
X129776741Y-86872419D02*
X129881503Y-86920038D01*
X129881503Y-86920038D02*
X129933884Y-86967657D01*
X129933884Y-86967657D02*
X129986265Y-87062895D01*
X129986265Y-87062895D02*
X129986265Y-87205752D01*
X129986265Y-87205752D02*
X129933884Y-87300990D01*
X129933884Y-87300990D02*
X129881503Y-87348609D01*
X129881503Y-87348609D02*
X129776741Y-87396228D01*
X129776741Y-87396228D02*
X129357693Y-87396228D01*
X130457693Y-87872419D02*
X130457693Y-86872419D01*
X131191027Y-86872419D02*
X131400551Y-86872419D01*
X131400551Y-86872419D02*
X131505313Y-86920038D01*
X131505313Y-86920038D02*
X131610075Y-87015276D01*
X131610075Y-87015276D02*
X131662456Y-87205752D01*
X131662456Y-87205752D02*
X131662456Y-87539085D01*
X131662456Y-87539085D02*
X131610075Y-87729561D01*
X131610075Y-87729561D02*
X131505313Y-87824800D01*
X131505313Y-87824800D02*
X131400551Y-87872419D01*
X131400551Y-87872419D02*
X131191027Y-87872419D01*
X131191027Y-87872419D02*
X131086265Y-87824800D01*
X131086265Y-87824800D02*
X130981503Y-87729561D01*
X130981503Y-87729561D02*
X130929122Y-87539085D01*
X130929122Y-87539085D02*
X130929122Y-87205752D01*
X130929122Y-87205752D02*
X130981503Y-87015276D01*
X130981503Y-87015276D02*
X131086265Y-86920038D01*
X131086265Y-86920038D02*
X131191027Y-86872419D01*
X132029122Y-86872419D02*
X132710075Y-86872419D01*
X132710075Y-86872419D02*
X132343408Y-87253371D01*
X132343408Y-87253371D02*
X132500551Y-87253371D01*
X132500551Y-87253371D02*
X132605313Y-87300990D01*
X132605313Y-87300990D02*
X132657694Y-87348609D01*
X132657694Y-87348609D02*
X132710075Y-87443847D01*
X132710075Y-87443847D02*
X132710075Y-87681942D01*
X132710075Y-87681942D02*
X132657694Y-87777180D01*
X132657694Y-87777180D02*
X132605313Y-87824800D01*
X132605313Y-87824800D02*
X132500551Y-87872419D01*
X132500551Y-87872419D02*
X132186265Y-87872419D01*
X132186265Y-87872419D02*
X132081503Y-87824800D01*
X132081503Y-87824800D02*
X132029122Y-87777180D01*
X133705313Y-86872419D02*
X133181503Y-86872419D01*
X133181503Y-86872419D02*
X133129122Y-87348609D01*
X133129122Y-87348609D02*
X133181503Y-87300990D01*
X133181503Y-87300990D02*
X133286265Y-87253371D01*
X133286265Y-87253371D02*
X133548170Y-87253371D01*
X133548170Y-87253371D02*
X133652932Y-87300990D01*
X133652932Y-87300990D02*
X133705313Y-87348609D01*
X133705313Y-87348609D02*
X133757694Y-87443847D01*
X133757694Y-87443847D02*
X133757694Y-87681942D01*
X133757694Y-87681942D02*
X133705313Y-87777180D01*
X133705313Y-87777180D02*
X133652932Y-87824800D01*
X133652932Y-87824800D02*
X133548170Y-87872419D01*
X133548170Y-87872419D02*
X133286265Y-87872419D01*
X133286265Y-87872419D02*
X133181503Y-87824800D01*
X133181503Y-87824800D02*
X133129122Y-87777180D01*
X128833884Y-89420038D02*
X128729122Y-89372419D01*
X128729122Y-89372419D02*
X128571979Y-89372419D01*
X128571979Y-89372419D02*
X128414836Y-89420038D01*
X128414836Y-89420038D02*
X128310074Y-89515276D01*
X128310074Y-89515276D02*
X128257693Y-89610514D01*
X128257693Y-89610514D02*
X128205312Y-89800990D01*
X128205312Y-89800990D02*
X128205312Y-89943847D01*
X128205312Y-89943847D02*
X128257693Y-90134323D01*
X128257693Y-90134323D02*
X128310074Y-90229561D01*
X128310074Y-90229561D02*
X128414836Y-90324800D01*
X128414836Y-90324800D02*
X128571979Y-90372419D01*
X128571979Y-90372419D02*
X128676741Y-90372419D01*
X128676741Y-90372419D02*
X128833884Y-90324800D01*
X128833884Y-90324800D02*
X128886265Y-90277180D01*
X128886265Y-90277180D02*
X128886265Y-89943847D01*
X128886265Y-89943847D02*
X128676741Y-89943847D01*
X129357693Y-90372419D02*
X129357693Y-89372419D01*
X129357693Y-89372419D02*
X129776741Y-89372419D01*
X129776741Y-89372419D02*
X129881503Y-89420038D01*
X129881503Y-89420038D02*
X129933884Y-89467657D01*
X129933884Y-89467657D02*
X129986265Y-89562895D01*
X129986265Y-89562895D02*
X129986265Y-89705752D01*
X129986265Y-89705752D02*
X129933884Y-89800990D01*
X129933884Y-89800990D02*
X129881503Y-89848609D01*
X129881503Y-89848609D02*
X129776741Y-89896228D01*
X129776741Y-89896228D02*
X129357693Y-89896228D01*
X130457693Y-90372419D02*
X130457693Y-89372419D01*
X131191027Y-89372419D02*
X131400551Y-89372419D01*
X131400551Y-89372419D02*
X131505313Y-89420038D01*
X131505313Y-89420038D02*
X131610075Y-89515276D01*
X131610075Y-89515276D02*
X131662456Y-89705752D01*
X131662456Y-89705752D02*
X131662456Y-90039085D01*
X131662456Y-90039085D02*
X131610075Y-90229561D01*
X131610075Y-90229561D02*
X131505313Y-90324800D01*
X131505313Y-90324800D02*
X131400551Y-90372419D01*
X131400551Y-90372419D02*
X131191027Y-90372419D01*
X131191027Y-90372419D02*
X131086265Y-90324800D01*
X131086265Y-90324800D02*
X130981503Y-90229561D01*
X130981503Y-90229561D02*
X130929122Y-90039085D01*
X130929122Y-90039085D02*
X130929122Y-89705752D01*
X130929122Y-89705752D02*
X130981503Y-89515276D01*
X130981503Y-89515276D02*
X131086265Y-89420038D01*
X131086265Y-89420038D02*
X131191027Y-89372419D01*
X132029122Y-89372419D02*
X132710075Y-89372419D01*
X132710075Y-89372419D02*
X132343408Y-89753371D01*
X132343408Y-89753371D02*
X132500551Y-89753371D01*
X132500551Y-89753371D02*
X132605313Y-89800990D01*
X132605313Y-89800990D02*
X132657694Y-89848609D01*
X132657694Y-89848609D02*
X132710075Y-89943847D01*
X132710075Y-89943847D02*
X132710075Y-90181942D01*
X132710075Y-90181942D02*
X132657694Y-90277180D01*
X132657694Y-90277180D02*
X132605313Y-90324800D01*
X132605313Y-90324800D02*
X132500551Y-90372419D01*
X132500551Y-90372419D02*
X132186265Y-90372419D01*
X132186265Y-90372419D02*
X132081503Y-90324800D01*
X132081503Y-90324800D02*
X132029122Y-90277180D01*
X133129122Y-89467657D02*
X133181503Y-89420038D01*
X133181503Y-89420038D02*
X133286265Y-89372419D01*
X133286265Y-89372419D02*
X133548170Y-89372419D01*
X133548170Y-89372419D02*
X133652932Y-89420038D01*
X133652932Y-89420038D02*
X133705313Y-89467657D01*
X133705313Y-89467657D02*
X133757694Y-89562895D01*
X133757694Y-89562895D02*
X133757694Y-89658133D01*
X133757694Y-89658133D02*
X133705313Y-89800990D01*
X133705313Y-89800990D02*
X133076741Y-90372419D01*
X133076741Y-90372419D02*
X133757694Y-90372419D01*
X128833884Y-91920038D02*
X128729122Y-91872419D01*
X128729122Y-91872419D02*
X128571979Y-91872419D01*
X128571979Y-91872419D02*
X128414836Y-91920038D01*
X128414836Y-91920038D02*
X128310074Y-92015276D01*
X128310074Y-92015276D02*
X128257693Y-92110514D01*
X128257693Y-92110514D02*
X128205312Y-92300990D01*
X128205312Y-92300990D02*
X128205312Y-92443847D01*
X128205312Y-92443847D02*
X128257693Y-92634323D01*
X128257693Y-92634323D02*
X128310074Y-92729561D01*
X128310074Y-92729561D02*
X128414836Y-92824800D01*
X128414836Y-92824800D02*
X128571979Y-92872419D01*
X128571979Y-92872419D02*
X128676741Y-92872419D01*
X128676741Y-92872419D02*
X128833884Y-92824800D01*
X128833884Y-92824800D02*
X128886265Y-92777180D01*
X128886265Y-92777180D02*
X128886265Y-92443847D01*
X128886265Y-92443847D02*
X128676741Y-92443847D01*
X129357693Y-92872419D02*
X129357693Y-91872419D01*
X129357693Y-91872419D02*
X129776741Y-91872419D01*
X129776741Y-91872419D02*
X129881503Y-91920038D01*
X129881503Y-91920038D02*
X129933884Y-91967657D01*
X129933884Y-91967657D02*
X129986265Y-92062895D01*
X129986265Y-92062895D02*
X129986265Y-92205752D01*
X129986265Y-92205752D02*
X129933884Y-92300990D01*
X129933884Y-92300990D02*
X129881503Y-92348609D01*
X129881503Y-92348609D02*
X129776741Y-92396228D01*
X129776741Y-92396228D02*
X129357693Y-92396228D01*
X130457693Y-92872419D02*
X130457693Y-91872419D01*
X131191027Y-91872419D02*
X131400551Y-91872419D01*
X131400551Y-91872419D02*
X131505313Y-91920038D01*
X131505313Y-91920038D02*
X131610075Y-92015276D01*
X131610075Y-92015276D02*
X131662456Y-92205752D01*
X131662456Y-92205752D02*
X131662456Y-92539085D01*
X131662456Y-92539085D02*
X131610075Y-92729561D01*
X131610075Y-92729561D02*
X131505313Y-92824800D01*
X131505313Y-92824800D02*
X131400551Y-92872419D01*
X131400551Y-92872419D02*
X131191027Y-92872419D01*
X131191027Y-92872419D02*
X131086265Y-92824800D01*
X131086265Y-92824800D02*
X130981503Y-92729561D01*
X130981503Y-92729561D02*
X130929122Y-92539085D01*
X130929122Y-92539085D02*
X130929122Y-92205752D01*
X130929122Y-92205752D02*
X130981503Y-92015276D01*
X130981503Y-92015276D02*
X131086265Y-91920038D01*
X131086265Y-91920038D02*
X131191027Y-91872419D01*
X132029122Y-91872419D02*
X132710075Y-91872419D01*
X132710075Y-91872419D02*
X132343408Y-92253371D01*
X132343408Y-92253371D02*
X132500551Y-92253371D01*
X132500551Y-92253371D02*
X132605313Y-92300990D01*
X132605313Y-92300990D02*
X132657694Y-92348609D01*
X132657694Y-92348609D02*
X132710075Y-92443847D01*
X132710075Y-92443847D02*
X132710075Y-92681942D01*
X132710075Y-92681942D02*
X132657694Y-92777180D01*
X132657694Y-92777180D02*
X132605313Y-92824800D01*
X132605313Y-92824800D02*
X132500551Y-92872419D01*
X132500551Y-92872419D02*
X132186265Y-92872419D01*
X132186265Y-92872419D02*
X132081503Y-92824800D01*
X132081503Y-92824800D02*
X132029122Y-92777180D01*
X133076741Y-91872419D02*
X133757694Y-91872419D01*
X133757694Y-91872419D02*
X133391027Y-92253371D01*
X133391027Y-92253371D02*
X133548170Y-92253371D01*
X133548170Y-92253371D02*
X133652932Y-92300990D01*
X133652932Y-92300990D02*
X133705313Y-92348609D01*
X133705313Y-92348609D02*
X133757694Y-92443847D01*
X133757694Y-92443847D02*
X133757694Y-92681942D01*
X133757694Y-92681942D02*
X133705313Y-92777180D01*
X133705313Y-92777180D02*
X133652932Y-92824800D01*
X133652932Y-92824800D02*
X133548170Y-92872419D01*
X133548170Y-92872419D02*
X133233884Y-92872419D01*
X133233884Y-92872419D02*
X133129122Y-92824800D01*
X133129122Y-92824800D02*
X133076741Y-92777180D01*
X128833884Y-94420038D02*
X128729122Y-94372419D01*
X128729122Y-94372419D02*
X128571979Y-94372419D01*
X128571979Y-94372419D02*
X128414836Y-94420038D01*
X128414836Y-94420038D02*
X128310074Y-94515276D01*
X128310074Y-94515276D02*
X128257693Y-94610514D01*
X128257693Y-94610514D02*
X128205312Y-94800990D01*
X128205312Y-94800990D02*
X128205312Y-94943847D01*
X128205312Y-94943847D02*
X128257693Y-95134323D01*
X128257693Y-95134323D02*
X128310074Y-95229561D01*
X128310074Y-95229561D02*
X128414836Y-95324800D01*
X128414836Y-95324800D02*
X128571979Y-95372419D01*
X128571979Y-95372419D02*
X128676741Y-95372419D01*
X128676741Y-95372419D02*
X128833884Y-95324800D01*
X128833884Y-95324800D02*
X128886265Y-95277180D01*
X128886265Y-95277180D02*
X128886265Y-94943847D01*
X128886265Y-94943847D02*
X128676741Y-94943847D01*
X129357693Y-95372419D02*
X129357693Y-94372419D01*
X129357693Y-94372419D02*
X129776741Y-94372419D01*
X129776741Y-94372419D02*
X129881503Y-94420038D01*
X129881503Y-94420038D02*
X129933884Y-94467657D01*
X129933884Y-94467657D02*
X129986265Y-94562895D01*
X129986265Y-94562895D02*
X129986265Y-94705752D01*
X129986265Y-94705752D02*
X129933884Y-94800990D01*
X129933884Y-94800990D02*
X129881503Y-94848609D01*
X129881503Y-94848609D02*
X129776741Y-94896228D01*
X129776741Y-94896228D02*
X129357693Y-94896228D01*
X130457693Y-95372419D02*
X130457693Y-94372419D01*
X131191027Y-94372419D02*
X131400551Y-94372419D01*
X131400551Y-94372419D02*
X131505313Y-94420038D01*
X131505313Y-94420038D02*
X131610075Y-94515276D01*
X131610075Y-94515276D02*
X131662456Y-94705752D01*
X131662456Y-94705752D02*
X131662456Y-95039085D01*
X131662456Y-95039085D02*
X131610075Y-95229561D01*
X131610075Y-95229561D02*
X131505313Y-95324800D01*
X131505313Y-95324800D02*
X131400551Y-95372419D01*
X131400551Y-95372419D02*
X131191027Y-95372419D01*
X131191027Y-95372419D02*
X131086265Y-95324800D01*
X131086265Y-95324800D02*
X130981503Y-95229561D01*
X130981503Y-95229561D02*
X130929122Y-95039085D01*
X130929122Y-95039085D02*
X130929122Y-94705752D01*
X130929122Y-94705752D02*
X130981503Y-94515276D01*
X130981503Y-94515276D02*
X131086265Y-94420038D01*
X131086265Y-94420038D02*
X131191027Y-94372419D01*
X132081503Y-94467657D02*
X132133884Y-94420038D01*
X132133884Y-94420038D02*
X132238646Y-94372419D01*
X132238646Y-94372419D02*
X132500551Y-94372419D01*
X132500551Y-94372419D02*
X132605313Y-94420038D01*
X132605313Y-94420038D02*
X132657694Y-94467657D01*
X132657694Y-94467657D02*
X132710075Y-94562895D01*
X132710075Y-94562895D02*
X132710075Y-94658133D01*
X132710075Y-94658133D02*
X132657694Y-94800990D01*
X132657694Y-94800990D02*
X132029122Y-95372419D01*
X132029122Y-95372419D02*
X132710075Y-95372419D01*
X133705313Y-94372419D02*
X133181503Y-94372419D01*
X133181503Y-94372419D02*
X133129122Y-94848609D01*
X133129122Y-94848609D02*
X133181503Y-94800990D01*
X133181503Y-94800990D02*
X133286265Y-94753371D01*
X133286265Y-94753371D02*
X133548170Y-94753371D01*
X133548170Y-94753371D02*
X133652932Y-94800990D01*
X133652932Y-94800990D02*
X133705313Y-94848609D01*
X133705313Y-94848609D02*
X133757694Y-94943847D01*
X133757694Y-94943847D02*
X133757694Y-95181942D01*
X133757694Y-95181942D02*
X133705313Y-95277180D01*
X133705313Y-95277180D02*
X133652932Y-95324800D01*
X133652932Y-95324800D02*
X133548170Y-95372419D01*
X133548170Y-95372419D02*
X133286265Y-95372419D01*
X133286265Y-95372419D02*
X133181503Y-95324800D01*
X133181503Y-95324800D02*
X133129122Y-95277180D01*
X128833884Y-96920038D02*
X128729122Y-96872419D01*
X128729122Y-96872419D02*
X128571979Y-96872419D01*
X128571979Y-96872419D02*
X128414836Y-96920038D01*
X128414836Y-96920038D02*
X128310074Y-97015276D01*
X128310074Y-97015276D02*
X128257693Y-97110514D01*
X128257693Y-97110514D02*
X128205312Y-97300990D01*
X128205312Y-97300990D02*
X128205312Y-97443847D01*
X128205312Y-97443847D02*
X128257693Y-97634323D01*
X128257693Y-97634323D02*
X128310074Y-97729561D01*
X128310074Y-97729561D02*
X128414836Y-97824800D01*
X128414836Y-97824800D02*
X128571979Y-97872419D01*
X128571979Y-97872419D02*
X128676741Y-97872419D01*
X128676741Y-97872419D02*
X128833884Y-97824800D01*
X128833884Y-97824800D02*
X128886265Y-97777180D01*
X128886265Y-97777180D02*
X128886265Y-97443847D01*
X128886265Y-97443847D02*
X128676741Y-97443847D01*
X129357693Y-97872419D02*
X129357693Y-96872419D01*
X129357693Y-96872419D02*
X129776741Y-96872419D01*
X129776741Y-96872419D02*
X129881503Y-96920038D01*
X129881503Y-96920038D02*
X129933884Y-96967657D01*
X129933884Y-96967657D02*
X129986265Y-97062895D01*
X129986265Y-97062895D02*
X129986265Y-97205752D01*
X129986265Y-97205752D02*
X129933884Y-97300990D01*
X129933884Y-97300990D02*
X129881503Y-97348609D01*
X129881503Y-97348609D02*
X129776741Y-97396228D01*
X129776741Y-97396228D02*
X129357693Y-97396228D01*
X130457693Y-97872419D02*
X130457693Y-96872419D01*
X131191027Y-96872419D02*
X131400551Y-96872419D01*
X131400551Y-96872419D02*
X131505313Y-96920038D01*
X131505313Y-96920038D02*
X131610075Y-97015276D01*
X131610075Y-97015276D02*
X131662456Y-97205752D01*
X131662456Y-97205752D02*
X131662456Y-97539085D01*
X131662456Y-97539085D02*
X131610075Y-97729561D01*
X131610075Y-97729561D02*
X131505313Y-97824800D01*
X131505313Y-97824800D02*
X131400551Y-97872419D01*
X131400551Y-97872419D02*
X131191027Y-97872419D01*
X131191027Y-97872419D02*
X131086265Y-97824800D01*
X131086265Y-97824800D02*
X130981503Y-97729561D01*
X130981503Y-97729561D02*
X130929122Y-97539085D01*
X130929122Y-97539085D02*
X130929122Y-97205752D01*
X130929122Y-97205752D02*
X130981503Y-97015276D01*
X130981503Y-97015276D02*
X131086265Y-96920038D01*
X131086265Y-96920038D02*
X131191027Y-96872419D01*
X132081503Y-96967657D02*
X132133884Y-96920038D01*
X132133884Y-96920038D02*
X132238646Y-96872419D01*
X132238646Y-96872419D02*
X132500551Y-96872419D01*
X132500551Y-96872419D02*
X132605313Y-96920038D01*
X132605313Y-96920038D02*
X132657694Y-96967657D01*
X132657694Y-96967657D02*
X132710075Y-97062895D01*
X132710075Y-97062895D02*
X132710075Y-97158133D01*
X132710075Y-97158133D02*
X132657694Y-97300990D01*
X132657694Y-97300990D02*
X132029122Y-97872419D01*
X132029122Y-97872419D02*
X132710075Y-97872419D01*
X133652932Y-96872419D02*
X133443408Y-96872419D01*
X133443408Y-96872419D02*
X133338646Y-96920038D01*
X133338646Y-96920038D02*
X133286265Y-96967657D01*
X133286265Y-96967657D02*
X133181503Y-97110514D01*
X133181503Y-97110514D02*
X133129122Y-97300990D01*
X133129122Y-97300990D02*
X133129122Y-97681942D01*
X133129122Y-97681942D02*
X133181503Y-97777180D01*
X133181503Y-97777180D02*
X133233884Y-97824800D01*
X133233884Y-97824800D02*
X133338646Y-97872419D01*
X133338646Y-97872419D02*
X133548170Y-97872419D01*
X133548170Y-97872419D02*
X133652932Y-97824800D01*
X133652932Y-97824800D02*
X133705313Y-97777180D01*
X133705313Y-97777180D02*
X133757694Y-97681942D01*
X133757694Y-97681942D02*
X133757694Y-97443847D01*
X133757694Y-97443847D02*
X133705313Y-97348609D01*
X133705313Y-97348609D02*
X133652932Y-97300990D01*
X133652932Y-97300990D02*
X133548170Y-97253371D01*
X133548170Y-97253371D02*
X133338646Y-97253371D01*
X133338646Y-97253371D02*
X133233884Y-97300990D01*
X133233884Y-97300990D02*
X133181503Y-97348609D01*
X133181503Y-97348609D02*
X133129122Y-97443847D01*
X128833884Y-99420038D02*
X128729122Y-99372419D01*
X128729122Y-99372419D02*
X128571979Y-99372419D01*
X128571979Y-99372419D02*
X128414836Y-99420038D01*
X128414836Y-99420038D02*
X128310074Y-99515276D01*
X128310074Y-99515276D02*
X128257693Y-99610514D01*
X128257693Y-99610514D02*
X128205312Y-99800990D01*
X128205312Y-99800990D02*
X128205312Y-99943847D01*
X128205312Y-99943847D02*
X128257693Y-100134323D01*
X128257693Y-100134323D02*
X128310074Y-100229561D01*
X128310074Y-100229561D02*
X128414836Y-100324800D01*
X128414836Y-100324800D02*
X128571979Y-100372419D01*
X128571979Y-100372419D02*
X128676741Y-100372419D01*
X128676741Y-100372419D02*
X128833884Y-100324800D01*
X128833884Y-100324800D02*
X128886265Y-100277180D01*
X128886265Y-100277180D02*
X128886265Y-99943847D01*
X128886265Y-99943847D02*
X128676741Y-99943847D01*
X129357693Y-100372419D02*
X129357693Y-99372419D01*
X129357693Y-99372419D02*
X129776741Y-99372419D01*
X129776741Y-99372419D02*
X129881503Y-99420038D01*
X129881503Y-99420038D02*
X129933884Y-99467657D01*
X129933884Y-99467657D02*
X129986265Y-99562895D01*
X129986265Y-99562895D02*
X129986265Y-99705752D01*
X129986265Y-99705752D02*
X129933884Y-99800990D01*
X129933884Y-99800990D02*
X129881503Y-99848609D01*
X129881503Y-99848609D02*
X129776741Y-99896228D01*
X129776741Y-99896228D02*
X129357693Y-99896228D01*
X130457693Y-100372419D02*
X130457693Y-99372419D01*
X131191027Y-99372419D02*
X131400551Y-99372419D01*
X131400551Y-99372419D02*
X131505313Y-99420038D01*
X131505313Y-99420038D02*
X131610075Y-99515276D01*
X131610075Y-99515276D02*
X131662456Y-99705752D01*
X131662456Y-99705752D02*
X131662456Y-100039085D01*
X131662456Y-100039085D02*
X131610075Y-100229561D01*
X131610075Y-100229561D02*
X131505313Y-100324800D01*
X131505313Y-100324800D02*
X131400551Y-100372419D01*
X131400551Y-100372419D02*
X131191027Y-100372419D01*
X131191027Y-100372419D02*
X131086265Y-100324800D01*
X131086265Y-100324800D02*
X130981503Y-100229561D01*
X130981503Y-100229561D02*
X130929122Y-100039085D01*
X130929122Y-100039085D02*
X130929122Y-99705752D01*
X130929122Y-99705752D02*
X130981503Y-99515276D01*
X130981503Y-99515276D02*
X131086265Y-99420038D01*
X131086265Y-99420038D02*
X131191027Y-99372419D01*
X132081503Y-99467657D02*
X132133884Y-99420038D01*
X132133884Y-99420038D02*
X132238646Y-99372419D01*
X132238646Y-99372419D02*
X132500551Y-99372419D01*
X132500551Y-99372419D02*
X132605313Y-99420038D01*
X132605313Y-99420038D02*
X132657694Y-99467657D01*
X132657694Y-99467657D02*
X132710075Y-99562895D01*
X132710075Y-99562895D02*
X132710075Y-99658133D01*
X132710075Y-99658133D02*
X132657694Y-99800990D01*
X132657694Y-99800990D02*
X132029122Y-100372419D01*
X132029122Y-100372419D02*
X132710075Y-100372419D01*
X133076741Y-99372419D02*
X133810075Y-99372419D01*
X133810075Y-99372419D02*
X133338646Y-100372419D01*
X128833884Y-101920038D02*
X128729122Y-101872419D01*
X128729122Y-101872419D02*
X128571979Y-101872419D01*
X128571979Y-101872419D02*
X128414836Y-101920038D01*
X128414836Y-101920038D02*
X128310074Y-102015276D01*
X128310074Y-102015276D02*
X128257693Y-102110514D01*
X128257693Y-102110514D02*
X128205312Y-102300990D01*
X128205312Y-102300990D02*
X128205312Y-102443847D01*
X128205312Y-102443847D02*
X128257693Y-102634323D01*
X128257693Y-102634323D02*
X128310074Y-102729561D01*
X128310074Y-102729561D02*
X128414836Y-102824800D01*
X128414836Y-102824800D02*
X128571979Y-102872419D01*
X128571979Y-102872419D02*
X128676741Y-102872419D01*
X128676741Y-102872419D02*
X128833884Y-102824800D01*
X128833884Y-102824800D02*
X128886265Y-102777180D01*
X128886265Y-102777180D02*
X128886265Y-102443847D01*
X128886265Y-102443847D02*
X128676741Y-102443847D01*
X129357693Y-102872419D02*
X129357693Y-101872419D01*
X129357693Y-101872419D02*
X129776741Y-101872419D01*
X129776741Y-101872419D02*
X129881503Y-101920038D01*
X129881503Y-101920038D02*
X129933884Y-101967657D01*
X129933884Y-101967657D02*
X129986265Y-102062895D01*
X129986265Y-102062895D02*
X129986265Y-102205752D01*
X129986265Y-102205752D02*
X129933884Y-102300990D01*
X129933884Y-102300990D02*
X129881503Y-102348609D01*
X129881503Y-102348609D02*
X129776741Y-102396228D01*
X129776741Y-102396228D02*
X129357693Y-102396228D01*
X130457693Y-102872419D02*
X130457693Y-101872419D01*
X131191027Y-101872419D02*
X131400551Y-101872419D01*
X131400551Y-101872419D02*
X131505313Y-101920038D01*
X131505313Y-101920038D02*
X131610075Y-102015276D01*
X131610075Y-102015276D02*
X131662456Y-102205752D01*
X131662456Y-102205752D02*
X131662456Y-102539085D01*
X131662456Y-102539085D02*
X131610075Y-102729561D01*
X131610075Y-102729561D02*
X131505313Y-102824800D01*
X131505313Y-102824800D02*
X131400551Y-102872419D01*
X131400551Y-102872419D02*
X131191027Y-102872419D01*
X131191027Y-102872419D02*
X131086265Y-102824800D01*
X131086265Y-102824800D02*
X130981503Y-102729561D01*
X130981503Y-102729561D02*
X130929122Y-102539085D01*
X130929122Y-102539085D02*
X130929122Y-102205752D01*
X130929122Y-102205752D02*
X130981503Y-102015276D01*
X130981503Y-102015276D02*
X131086265Y-101920038D01*
X131086265Y-101920038D02*
X131191027Y-101872419D01*
X132710075Y-102872419D02*
X132081503Y-102872419D01*
X132395789Y-102872419D02*
X132395789Y-101872419D01*
X132395789Y-101872419D02*
X132291027Y-102015276D01*
X132291027Y-102015276D02*
X132186265Y-102110514D01*
X132186265Y-102110514D02*
X132081503Y-102158133D01*
X133652932Y-102205752D02*
X133652932Y-102872419D01*
X133391027Y-101824800D02*
X133129122Y-102539085D01*
X133129122Y-102539085D02*
X133810075Y-102539085D01*
X128833884Y-104420038D02*
X128729122Y-104372419D01*
X128729122Y-104372419D02*
X128571979Y-104372419D01*
X128571979Y-104372419D02*
X128414836Y-104420038D01*
X128414836Y-104420038D02*
X128310074Y-104515276D01*
X128310074Y-104515276D02*
X128257693Y-104610514D01*
X128257693Y-104610514D02*
X128205312Y-104800990D01*
X128205312Y-104800990D02*
X128205312Y-104943847D01*
X128205312Y-104943847D02*
X128257693Y-105134323D01*
X128257693Y-105134323D02*
X128310074Y-105229561D01*
X128310074Y-105229561D02*
X128414836Y-105324800D01*
X128414836Y-105324800D02*
X128571979Y-105372419D01*
X128571979Y-105372419D02*
X128676741Y-105372419D01*
X128676741Y-105372419D02*
X128833884Y-105324800D01*
X128833884Y-105324800D02*
X128886265Y-105277180D01*
X128886265Y-105277180D02*
X128886265Y-104943847D01*
X128886265Y-104943847D02*
X128676741Y-104943847D01*
X129357693Y-105372419D02*
X129357693Y-104372419D01*
X129357693Y-104372419D02*
X129776741Y-104372419D01*
X129776741Y-104372419D02*
X129881503Y-104420038D01*
X129881503Y-104420038D02*
X129933884Y-104467657D01*
X129933884Y-104467657D02*
X129986265Y-104562895D01*
X129986265Y-104562895D02*
X129986265Y-104705752D01*
X129986265Y-104705752D02*
X129933884Y-104800990D01*
X129933884Y-104800990D02*
X129881503Y-104848609D01*
X129881503Y-104848609D02*
X129776741Y-104896228D01*
X129776741Y-104896228D02*
X129357693Y-104896228D01*
X130457693Y-105372419D02*
X130457693Y-104372419D01*
X131191027Y-104372419D02*
X131400551Y-104372419D01*
X131400551Y-104372419D02*
X131505313Y-104420038D01*
X131505313Y-104420038D02*
X131610075Y-104515276D01*
X131610075Y-104515276D02*
X131662456Y-104705752D01*
X131662456Y-104705752D02*
X131662456Y-105039085D01*
X131662456Y-105039085D02*
X131610075Y-105229561D01*
X131610075Y-105229561D02*
X131505313Y-105324800D01*
X131505313Y-105324800D02*
X131400551Y-105372419D01*
X131400551Y-105372419D02*
X131191027Y-105372419D01*
X131191027Y-105372419D02*
X131086265Y-105324800D01*
X131086265Y-105324800D02*
X130981503Y-105229561D01*
X130981503Y-105229561D02*
X130929122Y-105039085D01*
X130929122Y-105039085D02*
X130929122Y-104705752D01*
X130929122Y-104705752D02*
X130981503Y-104515276D01*
X130981503Y-104515276D02*
X131086265Y-104420038D01*
X131086265Y-104420038D02*
X131191027Y-104372419D01*
X132710075Y-105372419D02*
X132081503Y-105372419D01*
X132395789Y-105372419D02*
X132395789Y-104372419D01*
X132395789Y-104372419D02*
X132291027Y-104515276D01*
X132291027Y-104515276D02*
X132186265Y-104610514D01*
X132186265Y-104610514D02*
X132081503Y-104658133D01*
X133129122Y-104467657D02*
X133181503Y-104420038D01*
X133181503Y-104420038D02*
X133286265Y-104372419D01*
X133286265Y-104372419D02*
X133548170Y-104372419D01*
X133548170Y-104372419D02*
X133652932Y-104420038D01*
X133652932Y-104420038D02*
X133705313Y-104467657D01*
X133705313Y-104467657D02*
X133757694Y-104562895D01*
X133757694Y-104562895D02*
X133757694Y-104658133D01*
X133757694Y-104658133D02*
X133705313Y-104800990D01*
X133705313Y-104800990D02*
X133076741Y-105372419D01*
X133076741Y-105372419D02*
X133757694Y-105372419D01*
X128833884Y-106920038D02*
X128729122Y-106872419D01*
X128729122Y-106872419D02*
X128571979Y-106872419D01*
X128571979Y-106872419D02*
X128414836Y-106920038D01*
X128414836Y-106920038D02*
X128310074Y-107015276D01*
X128310074Y-107015276D02*
X128257693Y-107110514D01*
X128257693Y-107110514D02*
X128205312Y-107300990D01*
X128205312Y-107300990D02*
X128205312Y-107443847D01*
X128205312Y-107443847D02*
X128257693Y-107634323D01*
X128257693Y-107634323D02*
X128310074Y-107729561D01*
X128310074Y-107729561D02*
X128414836Y-107824800D01*
X128414836Y-107824800D02*
X128571979Y-107872419D01*
X128571979Y-107872419D02*
X128676741Y-107872419D01*
X128676741Y-107872419D02*
X128833884Y-107824800D01*
X128833884Y-107824800D02*
X128886265Y-107777180D01*
X128886265Y-107777180D02*
X128886265Y-107443847D01*
X128886265Y-107443847D02*
X128676741Y-107443847D01*
X129357693Y-107872419D02*
X129357693Y-106872419D01*
X129357693Y-106872419D02*
X129776741Y-106872419D01*
X129776741Y-106872419D02*
X129881503Y-106920038D01*
X129881503Y-106920038D02*
X129933884Y-106967657D01*
X129933884Y-106967657D02*
X129986265Y-107062895D01*
X129986265Y-107062895D02*
X129986265Y-107205752D01*
X129986265Y-107205752D02*
X129933884Y-107300990D01*
X129933884Y-107300990D02*
X129881503Y-107348609D01*
X129881503Y-107348609D02*
X129776741Y-107396228D01*
X129776741Y-107396228D02*
X129357693Y-107396228D01*
X130457693Y-107872419D02*
X130457693Y-106872419D01*
X131191027Y-106872419D02*
X131400551Y-106872419D01*
X131400551Y-106872419D02*
X131505313Y-106920038D01*
X131505313Y-106920038D02*
X131610075Y-107015276D01*
X131610075Y-107015276D02*
X131662456Y-107205752D01*
X131662456Y-107205752D02*
X131662456Y-107539085D01*
X131662456Y-107539085D02*
X131610075Y-107729561D01*
X131610075Y-107729561D02*
X131505313Y-107824800D01*
X131505313Y-107824800D02*
X131400551Y-107872419D01*
X131400551Y-107872419D02*
X131191027Y-107872419D01*
X131191027Y-107872419D02*
X131086265Y-107824800D01*
X131086265Y-107824800D02*
X130981503Y-107729561D01*
X130981503Y-107729561D02*
X130929122Y-107539085D01*
X130929122Y-107539085D02*
X130929122Y-107205752D01*
X130929122Y-107205752D02*
X130981503Y-107015276D01*
X130981503Y-107015276D02*
X131086265Y-106920038D01*
X131086265Y-106920038D02*
X131191027Y-106872419D01*
X132710075Y-107872419D02*
X132081503Y-107872419D01*
X132395789Y-107872419D02*
X132395789Y-106872419D01*
X132395789Y-106872419D02*
X132291027Y-107015276D01*
X132291027Y-107015276D02*
X132186265Y-107110514D01*
X132186265Y-107110514D02*
X132081503Y-107158133D01*
X133076741Y-106872419D02*
X133757694Y-106872419D01*
X133757694Y-106872419D02*
X133391027Y-107253371D01*
X133391027Y-107253371D02*
X133548170Y-107253371D01*
X133548170Y-107253371D02*
X133652932Y-107300990D01*
X133652932Y-107300990D02*
X133705313Y-107348609D01*
X133705313Y-107348609D02*
X133757694Y-107443847D01*
X133757694Y-107443847D02*
X133757694Y-107681942D01*
X133757694Y-107681942D02*
X133705313Y-107777180D01*
X133705313Y-107777180D02*
X133652932Y-107824800D01*
X133652932Y-107824800D02*
X133548170Y-107872419D01*
X133548170Y-107872419D02*
X133233884Y-107872419D01*
X133233884Y-107872419D02*
X133129122Y-107824800D01*
X133129122Y-107824800D02*
X133076741Y-107777180D01*
X128833884Y-109420038D02*
X128729122Y-109372419D01*
X128729122Y-109372419D02*
X128571979Y-109372419D01*
X128571979Y-109372419D02*
X128414836Y-109420038D01*
X128414836Y-109420038D02*
X128310074Y-109515276D01*
X128310074Y-109515276D02*
X128257693Y-109610514D01*
X128257693Y-109610514D02*
X128205312Y-109800990D01*
X128205312Y-109800990D02*
X128205312Y-109943847D01*
X128205312Y-109943847D02*
X128257693Y-110134323D01*
X128257693Y-110134323D02*
X128310074Y-110229561D01*
X128310074Y-110229561D02*
X128414836Y-110324800D01*
X128414836Y-110324800D02*
X128571979Y-110372419D01*
X128571979Y-110372419D02*
X128676741Y-110372419D01*
X128676741Y-110372419D02*
X128833884Y-110324800D01*
X128833884Y-110324800D02*
X128886265Y-110277180D01*
X128886265Y-110277180D02*
X128886265Y-109943847D01*
X128886265Y-109943847D02*
X128676741Y-109943847D01*
X129357693Y-110372419D02*
X129357693Y-109372419D01*
X129357693Y-109372419D02*
X129986265Y-110372419D01*
X129986265Y-110372419D02*
X129986265Y-109372419D01*
X130510074Y-110372419D02*
X130510074Y-109372419D01*
X130510074Y-109372419D02*
X130771979Y-109372419D01*
X130771979Y-109372419D02*
X130929122Y-109420038D01*
X130929122Y-109420038D02*
X131033884Y-109515276D01*
X131033884Y-109515276D02*
X131086265Y-109610514D01*
X131086265Y-109610514D02*
X131138646Y-109800990D01*
X131138646Y-109800990D02*
X131138646Y-109943847D01*
X131138646Y-109943847D02*
X131086265Y-110134323D01*
X131086265Y-110134323D02*
X131033884Y-110229561D01*
X131033884Y-110229561D02*
X130929122Y-110324800D01*
X130929122Y-110324800D02*
X130771979Y-110372419D01*
X130771979Y-110372419D02*
X130510074Y-110372419D01*
X128600550Y-111872419D02*
X128967217Y-112872419D01*
X128967217Y-112872419D02*
X129333884Y-111872419D01*
X129700550Y-112872419D02*
X129700550Y-111872419D01*
X130224360Y-112872419D02*
X130224360Y-111872419D01*
X130224360Y-111872419D02*
X130852932Y-112872419D01*
X130852932Y-112872419D02*
X130852932Y-111872419D01*
X138733884Y-118872419D02*
X138733884Y-119681942D01*
X138733884Y-119681942D02*
X138781503Y-119777180D01*
X138781503Y-119777180D02*
X138829122Y-119824800D01*
X138829122Y-119824800D02*
X138924360Y-119872419D01*
X138924360Y-119872419D02*
X139114836Y-119872419D01*
X139114836Y-119872419D02*
X139210074Y-119824800D01*
X139210074Y-119824800D02*
X139257693Y-119777180D01*
X139257693Y-119777180D02*
X139305312Y-119681942D01*
X139305312Y-119681942D02*
X139305312Y-118872419D01*
X139733884Y-119824800D02*
X139876741Y-119872419D01*
X139876741Y-119872419D02*
X140114836Y-119872419D01*
X140114836Y-119872419D02*
X140210074Y-119824800D01*
X140210074Y-119824800D02*
X140257693Y-119777180D01*
X140257693Y-119777180D02*
X140305312Y-119681942D01*
X140305312Y-119681942D02*
X140305312Y-119586704D01*
X140305312Y-119586704D02*
X140257693Y-119491466D01*
X140257693Y-119491466D02*
X140210074Y-119443847D01*
X140210074Y-119443847D02*
X140114836Y-119396228D01*
X140114836Y-119396228D02*
X139924360Y-119348609D01*
X139924360Y-119348609D02*
X139829122Y-119300990D01*
X139829122Y-119300990D02*
X139781503Y-119253371D01*
X139781503Y-119253371D02*
X139733884Y-119158133D01*
X139733884Y-119158133D02*
X139733884Y-119062895D01*
X139733884Y-119062895D02*
X139781503Y-118967657D01*
X139781503Y-118967657D02*
X139829122Y-118920038D01*
X139829122Y-118920038D02*
X139924360Y-118872419D01*
X139924360Y-118872419D02*
X140162455Y-118872419D01*
X140162455Y-118872419D02*
X140305312Y-118920038D01*
X141067217Y-119348609D02*
X141210074Y-119396228D01*
X141210074Y-119396228D02*
X141257693Y-119443847D01*
X141257693Y-119443847D02*
X141305312Y-119539085D01*
X141305312Y-119539085D02*
X141305312Y-119681942D01*
X141305312Y-119681942D02*
X141257693Y-119777180D01*
X141257693Y-119777180D02*
X141210074Y-119824800D01*
X141210074Y-119824800D02*
X141114836Y-119872419D01*
X141114836Y-119872419D02*
X140733884Y-119872419D01*
X140733884Y-119872419D02*
X140733884Y-118872419D01*
X140733884Y-118872419D02*
X141067217Y-118872419D01*
X141067217Y-118872419D02*
X141162455Y-118920038D01*
X141162455Y-118920038D02*
X141210074Y-118967657D01*
X141210074Y-118967657D02*
X141257693Y-119062895D01*
X141257693Y-119062895D02*
X141257693Y-119158133D01*
X141257693Y-119158133D02*
X141210074Y-119253371D01*
X141210074Y-119253371D02*
X141162455Y-119300990D01*
X141162455Y-119300990D02*
X141067217Y-119348609D01*
X141067217Y-119348609D02*
X140733884Y-119348609D01*
X146333884Y-76420038D02*
X146229122Y-76372419D01*
X146229122Y-76372419D02*
X146071979Y-76372419D01*
X146071979Y-76372419D02*
X145914836Y-76420038D01*
X145914836Y-76420038D02*
X145810074Y-76515276D01*
X145810074Y-76515276D02*
X145757693Y-76610514D01*
X145757693Y-76610514D02*
X145705312Y-76800990D01*
X145705312Y-76800990D02*
X145705312Y-76943847D01*
X145705312Y-76943847D02*
X145757693Y-77134323D01*
X145757693Y-77134323D02*
X145810074Y-77229561D01*
X145810074Y-77229561D02*
X145914836Y-77324800D01*
X145914836Y-77324800D02*
X146071979Y-77372419D01*
X146071979Y-77372419D02*
X146176741Y-77372419D01*
X146176741Y-77372419D02*
X146333884Y-77324800D01*
X146333884Y-77324800D02*
X146386265Y-77277180D01*
X146386265Y-77277180D02*
X146386265Y-76943847D01*
X146386265Y-76943847D02*
X146176741Y-76943847D01*
X146857693Y-77372419D02*
X146857693Y-76372419D01*
X146857693Y-76372419D02*
X147276741Y-76372419D01*
X147276741Y-76372419D02*
X147381503Y-76420038D01*
X147381503Y-76420038D02*
X147433884Y-76467657D01*
X147433884Y-76467657D02*
X147486265Y-76562895D01*
X147486265Y-76562895D02*
X147486265Y-76705752D01*
X147486265Y-76705752D02*
X147433884Y-76800990D01*
X147433884Y-76800990D02*
X147381503Y-76848609D01*
X147381503Y-76848609D02*
X147276741Y-76896228D01*
X147276741Y-76896228D02*
X146857693Y-76896228D01*
X147957693Y-77372419D02*
X147957693Y-76372419D01*
X148691027Y-76372419D02*
X148900551Y-76372419D01*
X148900551Y-76372419D02*
X149005313Y-76420038D01*
X149005313Y-76420038D02*
X149110075Y-76515276D01*
X149110075Y-76515276D02*
X149162456Y-76705752D01*
X149162456Y-76705752D02*
X149162456Y-77039085D01*
X149162456Y-77039085D02*
X149110075Y-77229561D01*
X149110075Y-77229561D02*
X149005313Y-77324800D01*
X149005313Y-77324800D02*
X148900551Y-77372419D01*
X148900551Y-77372419D02*
X148691027Y-77372419D01*
X148691027Y-77372419D02*
X148586265Y-77324800D01*
X148586265Y-77324800D02*
X148481503Y-77229561D01*
X148481503Y-77229561D02*
X148429122Y-77039085D01*
X148429122Y-77039085D02*
X148429122Y-76705752D01*
X148429122Y-76705752D02*
X148481503Y-76515276D01*
X148481503Y-76515276D02*
X148586265Y-76420038D01*
X148586265Y-76420038D02*
X148691027Y-76372419D01*
X149581503Y-76467657D02*
X149633884Y-76420038D01*
X149633884Y-76420038D02*
X149738646Y-76372419D01*
X149738646Y-76372419D02*
X150000551Y-76372419D01*
X150000551Y-76372419D02*
X150105313Y-76420038D01*
X150105313Y-76420038D02*
X150157694Y-76467657D01*
X150157694Y-76467657D02*
X150210075Y-76562895D01*
X150210075Y-76562895D02*
X150210075Y-76658133D01*
X150210075Y-76658133D02*
X150157694Y-76800990D01*
X150157694Y-76800990D02*
X149529122Y-77372419D01*
X149529122Y-77372419D02*
X150210075Y-77372419D01*
X150576741Y-76372419D02*
X151257694Y-76372419D01*
X151257694Y-76372419D02*
X150891027Y-76753371D01*
X150891027Y-76753371D02*
X151048170Y-76753371D01*
X151048170Y-76753371D02*
X151152932Y-76800990D01*
X151152932Y-76800990D02*
X151205313Y-76848609D01*
X151205313Y-76848609D02*
X151257694Y-76943847D01*
X151257694Y-76943847D02*
X151257694Y-77181942D01*
X151257694Y-77181942D02*
X151205313Y-77277180D01*
X151205313Y-77277180D02*
X151152932Y-77324800D01*
X151152932Y-77324800D02*
X151048170Y-77372419D01*
X151048170Y-77372419D02*
X150733884Y-77372419D01*
X150733884Y-77372419D02*
X150629122Y-77324800D01*
X150629122Y-77324800D02*
X150576741Y-77277180D01*
X146333884Y-78920038D02*
X146229122Y-78872419D01*
X146229122Y-78872419D02*
X146071979Y-78872419D01*
X146071979Y-78872419D02*
X145914836Y-78920038D01*
X145914836Y-78920038D02*
X145810074Y-79015276D01*
X145810074Y-79015276D02*
X145757693Y-79110514D01*
X145757693Y-79110514D02*
X145705312Y-79300990D01*
X145705312Y-79300990D02*
X145705312Y-79443847D01*
X145705312Y-79443847D02*
X145757693Y-79634323D01*
X145757693Y-79634323D02*
X145810074Y-79729561D01*
X145810074Y-79729561D02*
X145914836Y-79824800D01*
X145914836Y-79824800D02*
X146071979Y-79872419D01*
X146071979Y-79872419D02*
X146176741Y-79872419D01*
X146176741Y-79872419D02*
X146333884Y-79824800D01*
X146333884Y-79824800D02*
X146386265Y-79777180D01*
X146386265Y-79777180D02*
X146386265Y-79443847D01*
X146386265Y-79443847D02*
X146176741Y-79443847D01*
X146857693Y-79872419D02*
X146857693Y-78872419D01*
X146857693Y-78872419D02*
X147276741Y-78872419D01*
X147276741Y-78872419D02*
X147381503Y-78920038D01*
X147381503Y-78920038D02*
X147433884Y-78967657D01*
X147433884Y-78967657D02*
X147486265Y-79062895D01*
X147486265Y-79062895D02*
X147486265Y-79205752D01*
X147486265Y-79205752D02*
X147433884Y-79300990D01*
X147433884Y-79300990D02*
X147381503Y-79348609D01*
X147381503Y-79348609D02*
X147276741Y-79396228D01*
X147276741Y-79396228D02*
X146857693Y-79396228D01*
X147957693Y-79872419D02*
X147957693Y-78872419D01*
X148691027Y-78872419D02*
X148900551Y-78872419D01*
X148900551Y-78872419D02*
X149005313Y-78920038D01*
X149005313Y-78920038D02*
X149110075Y-79015276D01*
X149110075Y-79015276D02*
X149162456Y-79205752D01*
X149162456Y-79205752D02*
X149162456Y-79539085D01*
X149162456Y-79539085D02*
X149110075Y-79729561D01*
X149110075Y-79729561D02*
X149005313Y-79824800D01*
X149005313Y-79824800D02*
X148900551Y-79872419D01*
X148900551Y-79872419D02*
X148691027Y-79872419D01*
X148691027Y-79872419D02*
X148586265Y-79824800D01*
X148586265Y-79824800D02*
X148481503Y-79729561D01*
X148481503Y-79729561D02*
X148429122Y-79539085D01*
X148429122Y-79539085D02*
X148429122Y-79205752D01*
X148429122Y-79205752D02*
X148481503Y-79015276D01*
X148481503Y-79015276D02*
X148586265Y-78920038D01*
X148586265Y-78920038D02*
X148691027Y-78872419D01*
X149581503Y-78967657D02*
X149633884Y-78920038D01*
X149633884Y-78920038D02*
X149738646Y-78872419D01*
X149738646Y-78872419D02*
X150000551Y-78872419D01*
X150000551Y-78872419D02*
X150105313Y-78920038D01*
X150105313Y-78920038D02*
X150157694Y-78967657D01*
X150157694Y-78967657D02*
X150210075Y-79062895D01*
X150210075Y-79062895D02*
X150210075Y-79158133D01*
X150210075Y-79158133D02*
X150157694Y-79300990D01*
X150157694Y-79300990D02*
X149529122Y-79872419D01*
X149529122Y-79872419D02*
X150210075Y-79872419D01*
X150629122Y-78967657D02*
X150681503Y-78920038D01*
X150681503Y-78920038D02*
X150786265Y-78872419D01*
X150786265Y-78872419D02*
X151048170Y-78872419D01*
X151048170Y-78872419D02*
X151152932Y-78920038D01*
X151152932Y-78920038D02*
X151205313Y-78967657D01*
X151205313Y-78967657D02*
X151257694Y-79062895D01*
X151257694Y-79062895D02*
X151257694Y-79158133D01*
X151257694Y-79158133D02*
X151205313Y-79300990D01*
X151205313Y-79300990D02*
X150576741Y-79872419D01*
X150576741Y-79872419D02*
X151257694Y-79872419D01*
X146333884Y-86920038D02*
X146229122Y-86872419D01*
X146229122Y-86872419D02*
X146071979Y-86872419D01*
X146071979Y-86872419D02*
X145914836Y-86920038D01*
X145914836Y-86920038D02*
X145810074Y-87015276D01*
X145810074Y-87015276D02*
X145757693Y-87110514D01*
X145757693Y-87110514D02*
X145705312Y-87300990D01*
X145705312Y-87300990D02*
X145705312Y-87443847D01*
X145705312Y-87443847D02*
X145757693Y-87634323D01*
X145757693Y-87634323D02*
X145810074Y-87729561D01*
X145810074Y-87729561D02*
X145914836Y-87824800D01*
X145914836Y-87824800D02*
X146071979Y-87872419D01*
X146071979Y-87872419D02*
X146176741Y-87872419D01*
X146176741Y-87872419D02*
X146333884Y-87824800D01*
X146333884Y-87824800D02*
X146386265Y-87777180D01*
X146386265Y-87777180D02*
X146386265Y-87443847D01*
X146386265Y-87443847D02*
X146176741Y-87443847D01*
X146857693Y-87872419D02*
X146857693Y-86872419D01*
X146857693Y-86872419D02*
X147276741Y-86872419D01*
X147276741Y-86872419D02*
X147381503Y-86920038D01*
X147381503Y-86920038D02*
X147433884Y-86967657D01*
X147433884Y-86967657D02*
X147486265Y-87062895D01*
X147486265Y-87062895D02*
X147486265Y-87205752D01*
X147486265Y-87205752D02*
X147433884Y-87300990D01*
X147433884Y-87300990D02*
X147381503Y-87348609D01*
X147381503Y-87348609D02*
X147276741Y-87396228D01*
X147276741Y-87396228D02*
X146857693Y-87396228D01*
X147957693Y-87872419D02*
X147957693Y-86872419D01*
X148691027Y-86872419D02*
X148900551Y-86872419D01*
X148900551Y-86872419D02*
X149005313Y-86920038D01*
X149005313Y-86920038D02*
X149110075Y-87015276D01*
X149110075Y-87015276D02*
X149162456Y-87205752D01*
X149162456Y-87205752D02*
X149162456Y-87539085D01*
X149162456Y-87539085D02*
X149110075Y-87729561D01*
X149110075Y-87729561D02*
X149005313Y-87824800D01*
X149005313Y-87824800D02*
X148900551Y-87872419D01*
X148900551Y-87872419D02*
X148691027Y-87872419D01*
X148691027Y-87872419D02*
X148586265Y-87824800D01*
X148586265Y-87824800D02*
X148481503Y-87729561D01*
X148481503Y-87729561D02*
X148429122Y-87539085D01*
X148429122Y-87539085D02*
X148429122Y-87205752D01*
X148429122Y-87205752D02*
X148481503Y-87015276D01*
X148481503Y-87015276D02*
X148586265Y-86920038D01*
X148586265Y-86920038D02*
X148691027Y-86872419D01*
X149581503Y-86967657D02*
X149633884Y-86920038D01*
X149633884Y-86920038D02*
X149738646Y-86872419D01*
X149738646Y-86872419D02*
X150000551Y-86872419D01*
X150000551Y-86872419D02*
X150105313Y-86920038D01*
X150105313Y-86920038D02*
X150157694Y-86967657D01*
X150157694Y-86967657D02*
X150210075Y-87062895D01*
X150210075Y-87062895D02*
X150210075Y-87158133D01*
X150210075Y-87158133D02*
X150157694Y-87300990D01*
X150157694Y-87300990D02*
X149529122Y-87872419D01*
X149529122Y-87872419D02*
X150210075Y-87872419D01*
X151257694Y-87872419D02*
X150629122Y-87872419D01*
X150943408Y-87872419D02*
X150943408Y-86872419D01*
X150943408Y-86872419D02*
X150838646Y-87015276D01*
X150838646Y-87015276D02*
X150733884Y-87110514D01*
X150733884Y-87110514D02*
X150629122Y-87158133D01*
X146333884Y-89420038D02*
X146229122Y-89372419D01*
X146229122Y-89372419D02*
X146071979Y-89372419D01*
X146071979Y-89372419D02*
X145914836Y-89420038D01*
X145914836Y-89420038D02*
X145810074Y-89515276D01*
X145810074Y-89515276D02*
X145757693Y-89610514D01*
X145757693Y-89610514D02*
X145705312Y-89800990D01*
X145705312Y-89800990D02*
X145705312Y-89943847D01*
X145705312Y-89943847D02*
X145757693Y-90134323D01*
X145757693Y-90134323D02*
X145810074Y-90229561D01*
X145810074Y-90229561D02*
X145914836Y-90324800D01*
X145914836Y-90324800D02*
X146071979Y-90372419D01*
X146071979Y-90372419D02*
X146176741Y-90372419D01*
X146176741Y-90372419D02*
X146333884Y-90324800D01*
X146333884Y-90324800D02*
X146386265Y-90277180D01*
X146386265Y-90277180D02*
X146386265Y-89943847D01*
X146386265Y-89943847D02*
X146176741Y-89943847D01*
X146857693Y-90372419D02*
X146857693Y-89372419D01*
X146857693Y-89372419D02*
X147276741Y-89372419D01*
X147276741Y-89372419D02*
X147381503Y-89420038D01*
X147381503Y-89420038D02*
X147433884Y-89467657D01*
X147433884Y-89467657D02*
X147486265Y-89562895D01*
X147486265Y-89562895D02*
X147486265Y-89705752D01*
X147486265Y-89705752D02*
X147433884Y-89800990D01*
X147433884Y-89800990D02*
X147381503Y-89848609D01*
X147381503Y-89848609D02*
X147276741Y-89896228D01*
X147276741Y-89896228D02*
X146857693Y-89896228D01*
X147957693Y-90372419D02*
X147957693Y-89372419D01*
X148691027Y-89372419D02*
X148900551Y-89372419D01*
X148900551Y-89372419D02*
X149005313Y-89420038D01*
X149005313Y-89420038D02*
X149110075Y-89515276D01*
X149110075Y-89515276D02*
X149162456Y-89705752D01*
X149162456Y-89705752D02*
X149162456Y-90039085D01*
X149162456Y-90039085D02*
X149110075Y-90229561D01*
X149110075Y-90229561D02*
X149005313Y-90324800D01*
X149005313Y-90324800D02*
X148900551Y-90372419D01*
X148900551Y-90372419D02*
X148691027Y-90372419D01*
X148691027Y-90372419D02*
X148586265Y-90324800D01*
X148586265Y-90324800D02*
X148481503Y-90229561D01*
X148481503Y-90229561D02*
X148429122Y-90039085D01*
X148429122Y-90039085D02*
X148429122Y-89705752D01*
X148429122Y-89705752D02*
X148481503Y-89515276D01*
X148481503Y-89515276D02*
X148586265Y-89420038D01*
X148586265Y-89420038D02*
X148691027Y-89372419D01*
X150210075Y-90372419D02*
X149581503Y-90372419D01*
X149895789Y-90372419D02*
X149895789Y-89372419D01*
X149895789Y-89372419D02*
X149791027Y-89515276D01*
X149791027Y-89515276D02*
X149686265Y-89610514D01*
X149686265Y-89610514D02*
X149581503Y-89658133D01*
X150733884Y-90372419D02*
X150943408Y-90372419D01*
X150943408Y-90372419D02*
X151048170Y-90324800D01*
X151048170Y-90324800D02*
X151100551Y-90277180D01*
X151100551Y-90277180D02*
X151205313Y-90134323D01*
X151205313Y-90134323D02*
X151257694Y-89943847D01*
X151257694Y-89943847D02*
X151257694Y-89562895D01*
X151257694Y-89562895D02*
X151205313Y-89467657D01*
X151205313Y-89467657D02*
X151152932Y-89420038D01*
X151152932Y-89420038D02*
X151048170Y-89372419D01*
X151048170Y-89372419D02*
X150838646Y-89372419D01*
X150838646Y-89372419D02*
X150733884Y-89420038D01*
X150733884Y-89420038D02*
X150681503Y-89467657D01*
X150681503Y-89467657D02*
X150629122Y-89562895D01*
X150629122Y-89562895D02*
X150629122Y-89800990D01*
X150629122Y-89800990D02*
X150681503Y-89896228D01*
X150681503Y-89896228D02*
X150733884Y-89943847D01*
X150733884Y-89943847D02*
X150838646Y-89991466D01*
X150838646Y-89991466D02*
X151048170Y-89991466D01*
X151048170Y-89991466D02*
X151152932Y-89943847D01*
X151152932Y-89943847D02*
X151205313Y-89896228D01*
X151205313Y-89896228D02*
X151257694Y-89800990D01*
X146333884Y-91920038D02*
X146229122Y-91872419D01*
X146229122Y-91872419D02*
X146071979Y-91872419D01*
X146071979Y-91872419D02*
X145914836Y-91920038D01*
X145914836Y-91920038D02*
X145810074Y-92015276D01*
X145810074Y-92015276D02*
X145757693Y-92110514D01*
X145757693Y-92110514D02*
X145705312Y-92300990D01*
X145705312Y-92300990D02*
X145705312Y-92443847D01*
X145705312Y-92443847D02*
X145757693Y-92634323D01*
X145757693Y-92634323D02*
X145810074Y-92729561D01*
X145810074Y-92729561D02*
X145914836Y-92824800D01*
X145914836Y-92824800D02*
X146071979Y-92872419D01*
X146071979Y-92872419D02*
X146176741Y-92872419D01*
X146176741Y-92872419D02*
X146333884Y-92824800D01*
X146333884Y-92824800D02*
X146386265Y-92777180D01*
X146386265Y-92777180D02*
X146386265Y-92443847D01*
X146386265Y-92443847D02*
X146176741Y-92443847D01*
X146857693Y-92872419D02*
X146857693Y-91872419D01*
X146857693Y-91872419D02*
X147276741Y-91872419D01*
X147276741Y-91872419D02*
X147381503Y-91920038D01*
X147381503Y-91920038D02*
X147433884Y-91967657D01*
X147433884Y-91967657D02*
X147486265Y-92062895D01*
X147486265Y-92062895D02*
X147486265Y-92205752D01*
X147486265Y-92205752D02*
X147433884Y-92300990D01*
X147433884Y-92300990D02*
X147381503Y-92348609D01*
X147381503Y-92348609D02*
X147276741Y-92396228D01*
X147276741Y-92396228D02*
X146857693Y-92396228D01*
X147957693Y-92872419D02*
X147957693Y-91872419D01*
X148691027Y-91872419D02*
X148900551Y-91872419D01*
X148900551Y-91872419D02*
X149005313Y-91920038D01*
X149005313Y-91920038D02*
X149110075Y-92015276D01*
X149110075Y-92015276D02*
X149162456Y-92205752D01*
X149162456Y-92205752D02*
X149162456Y-92539085D01*
X149162456Y-92539085D02*
X149110075Y-92729561D01*
X149110075Y-92729561D02*
X149005313Y-92824800D01*
X149005313Y-92824800D02*
X148900551Y-92872419D01*
X148900551Y-92872419D02*
X148691027Y-92872419D01*
X148691027Y-92872419D02*
X148586265Y-92824800D01*
X148586265Y-92824800D02*
X148481503Y-92729561D01*
X148481503Y-92729561D02*
X148429122Y-92539085D01*
X148429122Y-92539085D02*
X148429122Y-92205752D01*
X148429122Y-92205752D02*
X148481503Y-92015276D01*
X148481503Y-92015276D02*
X148586265Y-91920038D01*
X148586265Y-91920038D02*
X148691027Y-91872419D01*
X150210075Y-92872419D02*
X149581503Y-92872419D01*
X149895789Y-92872419D02*
X149895789Y-91872419D01*
X149895789Y-91872419D02*
X149791027Y-92015276D01*
X149791027Y-92015276D02*
X149686265Y-92110514D01*
X149686265Y-92110514D02*
X149581503Y-92158133D01*
X150838646Y-92300990D02*
X150733884Y-92253371D01*
X150733884Y-92253371D02*
X150681503Y-92205752D01*
X150681503Y-92205752D02*
X150629122Y-92110514D01*
X150629122Y-92110514D02*
X150629122Y-92062895D01*
X150629122Y-92062895D02*
X150681503Y-91967657D01*
X150681503Y-91967657D02*
X150733884Y-91920038D01*
X150733884Y-91920038D02*
X150838646Y-91872419D01*
X150838646Y-91872419D02*
X151048170Y-91872419D01*
X151048170Y-91872419D02*
X151152932Y-91920038D01*
X151152932Y-91920038D02*
X151205313Y-91967657D01*
X151205313Y-91967657D02*
X151257694Y-92062895D01*
X151257694Y-92062895D02*
X151257694Y-92110514D01*
X151257694Y-92110514D02*
X151205313Y-92205752D01*
X151205313Y-92205752D02*
X151152932Y-92253371D01*
X151152932Y-92253371D02*
X151048170Y-92300990D01*
X151048170Y-92300990D02*
X150838646Y-92300990D01*
X150838646Y-92300990D02*
X150733884Y-92348609D01*
X150733884Y-92348609D02*
X150681503Y-92396228D01*
X150681503Y-92396228D02*
X150629122Y-92491466D01*
X150629122Y-92491466D02*
X150629122Y-92681942D01*
X150629122Y-92681942D02*
X150681503Y-92777180D01*
X150681503Y-92777180D02*
X150733884Y-92824800D01*
X150733884Y-92824800D02*
X150838646Y-92872419D01*
X150838646Y-92872419D02*
X151048170Y-92872419D01*
X151048170Y-92872419D02*
X151152932Y-92824800D01*
X151152932Y-92824800D02*
X151205313Y-92777180D01*
X151205313Y-92777180D02*
X151257694Y-92681942D01*
X151257694Y-92681942D02*
X151257694Y-92491466D01*
X151257694Y-92491466D02*
X151205313Y-92396228D01*
X151205313Y-92396228D02*
X151152932Y-92348609D01*
X151152932Y-92348609D02*
X151048170Y-92300990D01*
X146333884Y-96920038D02*
X146229122Y-96872419D01*
X146229122Y-96872419D02*
X146071979Y-96872419D01*
X146071979Y-96872419D02*
X145914836Y-96920038D01*
X145914836Y-96920038D02*
X145810074Y-97015276D01*
X145810074Y-97015276D02*
X145757693Y-97110514D01*
X145757693Y-97110514D02*
X145705312Y-97300990D01*
X145705312Y-97300990D02*
X145705312Y-97443847D01*
X145705312Y-97443847D02*
X145757693Y-97634323D01*
X145757693Y-97634323D02*
X145810074Y-97729561D01*
X145810074Y-97729561D02*
X145914836Y-97824800D01*
X145914836Y-97824800D02*
X146071979Y-97872419D01*
X146071979Y-97872419D02*
X146176741Y-97872419D01*
X146176741Y-97872419D02*
X146333884Y-97824800D01*
X146333884Y-97824800D02*
X146386265Y-97777180D01*
X146386265Y-97777180D02*
X146386265Y-97443847D01*
X146386265Y-97443847D02*
X146176741Y-97443847D01*
X146857693Y-97872419D02*
X146857693Y-96872419D01*
X146857693Y-96872419D02*
X147276741Y-96872419D01*
X147276741Y-96872419D02*
X147381503Y-96920038D01*
X147381503Y-96920038D02*
X147433884Y-96967657D01*
X147433884Y-96967657D02*
X147486265Y-97062895D01*
X147486265Y-97062895D02*
X147486265Y-97205752D01*
X147486265Y-97205752D02*
X147433884Y-97300990D01*
X147433884Y-97300990D02*
X147381503Y-97348609D01*
X147381503Y-97348609D02*
X147276741Y-97396228D01*
X147276741Y-97396228D02*
X146857693Y-97396228D01*
X147957693Y-97872419D02*
X147957693Y-96872419D01*
X148691027Y-96872419D02*
X148900551Y-96872419D01*
X148900551Y-96872419D02*
X149005313Y-96920038D01*
X149005313Y-96920038D02*
X149110075Y-97015276D01*
X149110075Y-97015276D02*
X149162456Y-97205752D01*
X149162456Y-97205752D02*
X149162456Y-97539085D01*
X149162456Y-97539085D02*
X149110075Y-97729561D01*
X149110075Y-97729561D02*
X149005313Y-97824800D01*
X149005313Y-97824800D02*
X148900551Y-97872419D01*
X148900551Y-97872419D02*
X148691027Y-97872419D01*
X148691027Y-97872419D02*
X148586265Y-97824800D01*
X148586265Y-97824800D02*
X148481503Y-97729561D01*
X148481503Y-97729561D02*
X148429122Y-97539085D01*
X148429122Y-97539085D02*
X148429122Y-97205752D01*
X148429122Y-97205752D02*
X148481503Y-97015276D01*
X148481503Y-97015276D02*
X148586265Y-96920038D01*
X148586265Y-96920038D02*
X148691027Y-96872419D01*
X150210075Y-97872419D02*
X149581503Y-97872419D01*
X149895789Y-97872419D02*
X149895789Y-96872419D01*
X149895789Y-96872419D02*
X149791027Y-97015276D01*
X149791027Y-97015276D02*
X149686265Y-97110514D01*
X149686265Y-97110514D02*
X149581503Y-97158133D01*
X150576741Y-96872419D02*
X151310075Y-96872419D01*
X151310075Y-96872419D02*
X150838646Y-97872419D01*
X146333884Y-99420038D02*
X146229122Y-99372419D01*
X146229122Y-99372419D02*
X146071979Y-99372419D01*
X146071979Y-99372419D02*
X145914836Y-99420038D01*
X145914836Y-99420038D02*
X145810074Y-99515276D01*
X145810074Y-99515276D02*
X145757693Y-99610514D01*
X145757693Y-99610514D02*
X145705312Y-99800990D01*
X145705312Y-99800990D02*
X145705312Y-99943847D01*
X145705312Y-99943847D02*
X145757693Y-100134323D01*
X145757693Y-100134323D02*
X145810074Y-100229561D01*
X145810074Y-100229561D02*
X145914836Y-100324800D01*
X145914836Y-100324800D02*
X146071979Y-100372419D01*
X146071979Y-100372419D02*
X146176741Y-100372419D01*
X146176741Y-100372419D02*
X146333884Y-100324800D01*
X146333884Y-100324800D02*
X146386265Y-100277180D01*
X146386265Y-100277180D02*
X146386265Y-99943847D01*
X146386265Y-99943847D02*
X146176741Y-99943847D01*
X146857693Y-100372419D02*
X146857693Y-99372419D01*
X146857693Y-99372419D02*
X147276741Y-99372419D01*
X147276741Y-99372419D02*
X147381503Y-99420038D01*
X147381503Y-99420038D02*
X147433884Y-99467657D01*
X147433884Y-99467657D02*
X147486265Y-99562895D01*
X147486265Y-99562895D02*
X147486265Y-99705752D01*
X147486265Y-99705752D02*
X147433884Y-99800990D01*
X147433884Y-99800990D02*
X147381503Y-99848609D01*
X147381503Y-99848609D02*
X147276741Y-99896228D01*
X147276741Y-99896228D02*
X146857693Y-99896228D01*
X147957693Y-100372419D02*
X147957693Y-99372419D01*
X148691027Y-99372419D02*
X148900551Y-99372419D01*
X148900551Y-99372419D02*
X149005313Y-99420038D01*
X149005313Y-99420038D02*
X149110075Y-99515276D01*
X149110075Y-99515276D02*
X149162456Y-99705752D01*
X149162456Y-99705752D02*
X149162456Y-100039085D01*
X149162456Y-100039085D02*
X149110075Y-100229561D01*
X149110075Y-100229561D02*
X149005313Y-100324800D01*
X149005313Y-100324800D02*
X148900551Y-100372419D01*
X148900551Y-100372419D02*
X148691027Y-100372419D01*
X148691027Y-100372419D02*
X148586265Y-100324800D01*
X148586265Y-100324800D02*
X148481503Y-100229561D01*
X148481503Y-100229561D02*
X148429122Y-100039085D01*
X148429122Y-100039085D02*
X148429122Y-99705752D01*
X148429122Y-99705752D02*
X148481503Y-99515276D01*
X148481503Y-99515276D02*
X148586265Y-99420038D01*
X148586265Y-99420038D02*
X148691027Y-99372419D01*
X150210075Y-100372419D02*
X149581503Y-100372419D01*
X149895789Y-100372419D02*
X149895789Y-99372419D01*
X149895789Y-99372419D02*
X149791027Y-99515276D01*
X149791027Y-99515276D02*
X149686265Y-99610514D01*
X149686265Y-99610514D02*
X149581503Y-99658133D01*
X151152932Y-99372419D02*
X150943408Y-99372419D01*
X150943408Y-99372419D02*
X150838646Y-99420038D01*
X150838646Y-99420038D02*
X150786265Y-99467657D01*
X150786265Y-99467657D02*
X150681503Y-99610514D01*
X150681503Y-99610514D02*
X150629122Y-99800990D01*
X150629122Y-99800990D02*
X150629122Y-100181942D01*
X150629122Y-100181942D02*
X150681503Y-100277180D01*
X150681503Y-100277180D02*
X150733884Y-100324800D01*
X150733884Y-100324800D02*
X150838646Y-100372419D01*
X150838646Y-100372419D02*
X151048170Y-100372419D01*
X151048170Y-100372419D02*
X151152932Y-100324800D01*
X151152932Y-100324800D02*
X151205313Y-100277180D01*
X151205313Y-100277180D02*
X151257694Y-100181942D01*
X151257694Y-100181942D02*
X151257694Y-99943847D01*
X151257694Y-99943847D02*
X151205313Y-99848609D01*
X151205313Y-99848609D02*
X151152932Y-99800990D01*
X151152932Y-99800990D02*
X151048170Y-99753371D01*
X151048170Y-99753371D02*
X150838646Y-99753371D01*
X150838646Y-99753371D02*
X150733884Y-99800990D01*
X150733884Y-99800990D02*
X150681503Y-99848609D01*
X150681503Y-99848609D02*
X150629122Y-99943847D01*
X146333884Y-106920038D02*
X146229122Y-106872419D01*
X146229122Y-106872419D02*
X146071979Y-106872419D01*
X146071979Y-106872419D02*
X145914836Y-106920038D01*
X145914836Y-106920038D02*
X145810074Y-107015276D01*
X145810074Y-107015276D02*
X145757693Y-107110514D01*
X145757693Y-107110514D02*
X145705312Y-107300990D01*
X145705312Y-107300990D02*
X145705312Y-107443847D01*
X145705312Y-107443847D02*
X145757693Y-107634323D01*
X145757693Y-107634323D02*
X145810074Y-107729561D01*
X145810074Y-107729561D02*
X145914836Y-107824800D01*
X145914836Y-107824800D02*
X146071979Y-107872419D01*
X146071979Y-107872419D02*
X146176741Y-107872419D01*
X146176741Y-107872419D02*
X146333884Y-107824800D01*
X146333884Y-107824800D02*
X146386265Y-107777180D01*
X146386265Y-107777180D02*
X146386265Y-107443847D01*
X146386265Y-107443847D02*
X146176741Y-107443847D01*
X146857693Y-107872419D02*
X146857693Y-106872419D01*
X146857693Y-106872419D02*
X147276741Y-106872419D01*
X147276741Y-106872419D02*
X147381503Y-106920038D01*
X147381503Y-106920038D02*
X147433884Y-106967657D01*
X147433884Y-106967657D02*
X147486265Y-107062895D01*
X147486265Y-107062895D02*
X147486265Y-107205752D01*
X147486265Y-107205752D02*
X147433884Y-107300990D01*
X147433884Y-107300990D02*
X147381503Y-107348609D01*
X147381503Y-107348609D02*
X147276741Y-107396228D01*
X147276741Y-107396228D02*
X146857693Y-107396228D01*
X147957693Y-107872419D02*
X147957693Y-106872419D01*
X148691027Y-106872419D02*
X148900551Y-106872419D01*
X148900551Y-106872419D02*
X149005313Y-106920038D01*
X149005313Y-106920038D02*
X149110075Y-107015276D01*
X149110075Y-107015276D02*
X149162456Y-107205752D01*
X149162456Y-107205752D02*
X149162456Y-107539085D01*
X149162456Y-107539085D02*
X149110075Y-107729561D01*
X149110075Y-107729561D02*
X149005313Y-107824800D01*
X149005313Y-107824800D02*
X148900551Y-107872419D01*
X148900551Y-107872419D02*
X148691027Y-107872419D01*
X148691027Y-107872419D02*
X148586265Y-107824800D01*
X148586265Y-107824800D02*
X148481503Y-107729561D01*
X148481503Y-107729561D02*
X148429122Y-107539085D01*
X148429122Y-107539085D02*
X148429122Y-107205752D01*
X148429122Y-107205752D02*
X148481503Y-107015276D01*
X148481503Y-107015276D02*
X148586265Y-106920038D01*
X148586265Y-106920038D02*
X148691027Y-106872419D01*
X150210075Y-107872419D02*
X149581503Y-107872419D01*
X149895789Y-107872419D02*
X149895789Y-106872419D01*
X149895789Y-106872419D02*
X149791027Y-107015276D01*
X149791027Y-107015276D02*
X149686265Y-107110514D01*
X149686265Y-107110514D02*
X149581503Y-107158133D01*
X151205313Y-106872419D02*
X150681503Y-106872419D01*
X150681503Y-106872419D02*
X150629122Y-107348609D01*
X150629122Y-107348609D02*
X150681503Y-107300990D01*
X150681503Y-107300990D02*
X150786265Y-107253371D01*
X150786265Y-107253371D02*
X151048170Y-107253371D01*
X151048170Y-107253371D02*
X151152932Y-107300990D01*
X151152932Y-107300990D02*
X151205313Y-107348609D01*
X151205313Y-107348609D02*
X151257694Y-107443847D01*
X151257694Y-107443847D02*
X151257694Y-107681942D01*
X151257694Y-107681942D02*
X151205313Y-107777180D01*
X151205313Y-107777180D02*
X151152932Y-107824800D01*
X151152932Y-107824800D02*
X151048170Y-107872419D01*
X151048170Y-107872419D02*
X150786265Y-107872419D01*
X150786265Y-107872419D02*
X150681503Y-107824800D01*
X150681503Y-107824800D02*
X150629122Y-107777180D01*
X147333884Y-81420038D02*
X147229122Y-81372419D01*
X147229122Y-81372419D02*
X147071979Y-81372419D01*
X147071979Y-81372419D02*
X146914836Y-81420038D01*
X146914836Y-81420038D02*
X146810074Y-81515276D01*
X146810074Y-81515276D02*
X146757693Y-81610514D01*
X146757693Y-81610514D02*
X146705312Y-81800990D01*
X146705312Y-81800990D02*
X146705312Y-81943847D01*
X146705312Y-81943847D02*
X146757693Y-82134323D01*
X146757693Y-82134323D02*
X146810074Y-82229561D01*
X146810074Y-82229561D02*
X146914836Y-82324800D01*
X146914836Y-82324800D02*
X147071979Y-82372419D01*
X147071979Y-82372419D02*
X147176741Y-82372419D01*
X147176741Y-82372419D02*
X147333884Y-82324800D01*
X147333884Y-82324800D02*
X147386265Y-82277180D01*
X147386265Y-82277180D02*
X147386265Y-81943847D01*
X147386265Y-81943847D02*
X147176741Y-81943847D01*
X147857693Y-82372419D02*
X147857693Y-81372419D01*
X147857693Y-81372419D02*
X148276741Y-81372419D01*
X148276741Y-81372419D02*
X148381503Y-81420038D01*
X148381503Y-81420038D02*
X148433884Y-81467657D01*
X148433884Y-81467657D02*
X148486265Y-81562895D01*
X148486265Y-81562895D02*
X148486265Y-81705752D01*
X148486265Y-81705752D02*
X148433884Y-81800990D01*
X148433884Y-81800990D02*
X148381503Y-81848609D01*
X148381503Y-81848609D02*
X148276741Y-81896228D01*
X148276741Y-81896228D02*
X147857693Y-81896228D01*
X148957693Y-82372419D02*
X148957693Y-81372419D01*
X149691027Y-81372419D02*
X149900551Y-81372419D01*
X149900551Y-81372419D02*
X150005313Y-81420038D01*
X150005313Y-81420038D02*
X150110075Y-81515276D01*
X150110075Y-81515276D02*
X150162456Y-81705752D01*
X150162456Y-81705752D02*
X150162456Y-82039085D01*
X150162456Y-82039085D02*
X150110075Y-82229561D01*
X150110075Y-82229561D02*
X150005313Y-82324800D01*
X150005313Y-82324800D02*
X149900551Y-82372419D01*
X149900551Y-82372419D02*
X149691027Y-82372419D01*
X149691027Y-82372419D02*
X149586265Y-82324800D01*
X149586265Y-82324800D02*
X149481503Y-82229561D01*
X149481503Y-82229561D02*
X149429122Y-82039085D01*
X149429122Y-82039085D02*
X149429122Y-81705752D01*
X149429122Y-81705752D02*
X149481503Y-81515276D01*
X149481503Y-81515276D02*
X149586265Y-81420038D01*
X149586265Y-81420038D02*
X149691027Y-81372419D01*
X151210075Y-82372419D02*
X150581503Y-82372419D01*
X150895789Y-82372419D02*
X150895789Y-81372419D01*
X150895789Y-81372419D02*
X150791027Y-81515276D01*
X150791027Y-81515276D02*
X150686265Y-81610514D01*
X150686265Y-81610514D02*
X150581503Y-81658133D01*
X147333884Y-84420038D02*
X147229122Y-84372419D01*
X147229122Y-84372419D02*
X147071979Y-84372419D01*
X147071979Y-84372419D02*
X146914836Y-84420038D01*
X146914836Y-84420038D02*
X146810074Y-84515276D01*
X146810074Y-84515276D02*
X146757693Y-84610514D01*
X146757693Y-84610514D02*
X146705312Y-84800990D01*
X146705312Y-84800990D02*
X146705312Y-84943847D01*
X146705312Y-84943847D02*
X146757693Y-85134323D01*
X146757693Y-85134323D02*
X146810074Y-85229561D01*
X146810074Y-85229561D02*
X146914836Y-85324800D01*
X146914836Y-85324800D02*
X147071979Y-85372419D01*
X147071979Y-85372419D02*
X147176741Y-85372419D01*
X147176741Y-85372419D02*
X147333884Y-85324800D01*
X147333884Y-85324800D02*
X147386265Y-85277180D01*
X147386265Y-85277180D02*
X147386265Y-84943847D01*
X147386265Y-84943847D02*
X147176741Y-84943847D01*
X147857693Y-85372419D02*
X147857693Y-84372419D01*
X147857693Y-84372419D02*
X148276741Y-84372419D01*
X148276741Y-84372419D02*
X148381503Y-84420038D01*
X148381503Y-84420038D02*
X148433884Y-84467657D01*
X148433884Y-84467657D02*
X148486265Y-84562895D01*
X148486265Y-84562895D02*
X148486265Y-84705752D01*
X148486265Y-84705752D02*
X148433884Y-84800990D01*
X148433884Y-84800990D02*
X148381503Y-84848609D01*
X148381503Y-84848609D02*
X148276741Y-84896228D01*
X148276741Y-84896228D02*
X147857693Y-84896228D01*
X148957693Y-85372419D02*
X148957693Y-84372419D01*
X149691027Y-84372419D02*
X149900551Y-84372419D01*
X149900551Y-84372419D02*
X150005313Y-84420038D01*
X150005313Y-84420038D02*
X150110075Y-84515276D01*
X150110075Y-84515276D02*
X150162456Y-84705752D01*
X150162456Y-84705752D02*
X150162456Y-85039085D01*
X150162456Y-85039085D02*
X150110075Y-85229561D01*
X150110075Y-85229561D02*
X150005313Y-85324800D01*
X150005313Y-85324800D02*
X149900551Y-85372419D01*
X149900551Y-85372419D02*
X149691027Y-85372419D01*
X149691027Y-85372419D02*
X149586265Y-85324800D01*
X149586265Y-85324800D02*
X149481503Y-85229561D01*
X149481503Y-85229561D02*
X149429122Y-85039085D01*
X149429122Y-85039085D02*
X149429122Y-84705752D01*
X149429122Y-84705752D02*
X149481503Y-84515276D01*
X149481503Y-84515276D02*
X149586265Y-84420038D01*
X149586265Y-84420038D02*
X149691027Y-84372419D01*
X150529122Y-84372419D02*
X151210075Y-84372419D01*
X151210075Y-84372419D02*
X150843408Y-84753371D01*
X150843408Y-84753371D02*
X151000551Y-84753371D01*
X151000551Y-84753371D02*
X151105313Y-84800990D01*
X151105313Y-84800990D02*
X151157694Y-84848609D01*
X151157694Y-84848609D02*
X151210075Y-84943847D01*
X151210075Y-84943847D02*
X151210075Y-85181942D01*
X151210075Y-85181942D02*
X151157694Y-85277180D01*
X151157694Y-85277180D02*
X151105313Y-85324800D01*
X151105313Y-85324800D02*
X151000551Y-85372419D01*
X151000551Y-85372419D02*
X150686265Y-85372419D01*
X150686265Y-85372419D02*
X150581503Y-85324800D01*
X150581503Y-85324800D02*
X150529122Y-85277180D01*
X147333884Y-94420038D02*
X147229122Y-94372419D01*
X147229122Y-94372419D02*
X147071979Y-94372419D01*
X147071979Y-94372419D02*
X146914836Y-94420038D01*
X146914836Y-94420038D02*
X146810074Y-94515276D01*
X146810074Y-94515276D02*
X146757693Y-94610514D01*
X146757693Y-94610514D02*
X146705312Y-94800990D01*
X146705312Y-94800990D02*
X146705312Y-94943847D01*
X146705312Y-94943847D02*
X146757693Y-95134323D01*
X146757693Y-95134323D02*
X146810074Y-95229561D01*
X146810074Y-95229561D02*
X146914836Y-95324800D01*
X146914836Y-95324800D02*
X147071979Y-95372419D01*
X147071979Y-95372419D02*
X147176741Y-95372419D01*
X147176741Y-95372419D02*
X147333884Y-95324800D01*
X147333884Y-95324800D02*
X147386265Y-95277180D01*
X147386265Y-95277180D02*
X147386265Y-94943847D01*
X147386265Y-94943847D02*
X147176741Y-94943847D01*
X147857693Y-95372419D02*
X147857693Y-94372419D01*
X147857693Y-94372419D02*
X148276741Y-94372419D01*
X148276741Y-94372419D02*
X148381503Y-94420038D01*
X148381503Y-94420038D02*
X148433884Y-94467657D01*
X148433884Y-94467657D02*
X148486265Y-94562895D01*
X148486265Y-94562895D02*
X148486265Y-94705752D01*
X148486265Y-94705752D02*
X148433884Y-94800990D01*
X148433884Y-94800990D02*
X148381503Y-94848609D01*
X148381503Y-94848609D02*
X148276741Y-94896228D01*
X148276741Y-94896228D02*
X147857693Y-94896228D01*
X148957693Y-95372419D02*
X148957693Y-94372419D01*
X149691027Y-94372419D02*
X149900551Y-94372419D01*
X149900551Y-94372419D02*
X150005313Y-94420038D01*
X150005313Y-94420038D02*
X150110075Y-94515276D01*
X150110075Y-94515276D02*
X150162456Y-94705752D01*
X150162456Y-94705752D02*
X150162456Y-95039085D01*
X150162456Y-95039085D02*
X150110075Y-95229561D01*
X150110075Y-95229561D02*
X150005313Y-95324800D01*
X150005313Y-95324800D02*
X149900551Y-95372419D01*
X149900551Y-95372419D02*
X149691027Y-95372419D01*
X149691027Y-95372419D02*
X149586265Y-95324800D01*
X149586265Y-95324800D02*
X149481503Y-95229561D01*
X149481503Y-95229561D02*
X149429122Y-95039085D01*
X149429122Y-95039085D02*
X149429122Y-94705752D01*
X149429122Y-94705752D02*
X149481503Y-94515276D01*
X149481503Y-94515276D02*
X149586265Y-94420038D01*
X149586265Y-94420038D02*
X149691027Y-94372419D01*
X151157694Y-94372419D02*
X150633884Y-94372419D01*
X150633884Y-94372419D02*
X150581503Y-94848609D01*
X150581503Y-94848609D02*
X150633884Y-94800990D01*
X150633884Y-94800990D02*
X150738646Y-94753371D01*
X150738646Y-94753371D02*
X151000551Y-94753371D01*
X151000551Y-94753371D02*
X151105313Y-94800990D01*
X151105313Y-94800990D02*
X151157694Y-94848609D01*
X151157694Y-94848609D02*
X151210075Y-94943847D01*
X151210075Y-94943847D02*
X151210075Y-95181942D01*
X151210075Y-95181942D02*
X151157694Y-95277180D01*
X151157694Y-95277180D02*
X151105313Y-95324800D01*
X151105313Y-95324800D02*
X151000551Y-95372419D01*
X151000551Y-95372419D02*
X150738646Y-95372419D01*
X150738646Y-95372419D02*
X150633884Y-95324800D01*
X150633884Y-95324800D02*
X150581503Y-95277180D01*
X147333884Y-101920038D02*
X147229122Y-101872419D01*
X147229122Y-101872419D02*
X147071979Y-101872419D01*
X147071979Y-101872419D02*
X146914836Y-101920038D01*
X146914836Y-101920038D02*
X146810074Y-102015276D01*
X146810074Y-102015276D02*
X146757693Y-102110514D01*
X146757693Y-102110514D02*
X146705312Y-102300990D01*
X146705312Y-102300990D02*
X146705312Y-102443847D01*
X146705312Y-102443847D02*
X146757693Y-102634323D01*
X146757693Y-102634323D02*
X146810074Y-102729561D01*
X146810074Y-102729561D02*
X146914836Y-102824800D01*
X146914836Y-102824800D02*
X147071979Y-102872419D01*
X147071979Y-102872419D02*
X147176741Y-102872419D01*
X147176741Y-102872419D02*
X147333884Y-102824800D01*
X147333884Y-102824800D02*
X147386265Y-102777180D01*
X147386265Y-102777180D02*
X147386265Y-102443847D01*
X147386265Y-102443847D02*
X147176741Y-102443847D01*
X147857693Y-102872419D02*
X147857693Y-101872419D01*
X147857693Y-101872419D02*
X148276741Y-101872419D01*
X148276741Y-101872419D02*
X148381503Y-101920038D01*
X148381503Y-101920038D02*
X148433884Y-101967657D01*
X148433884Y-101967657D02*
X148486265Y-102062895D01*
X148486265Y-102062895D02*
X148486265Y-102205752D01*
X148486265Y-102205752D02*
X148433884Y-102300990D01*
X148433884Y-102300990D02*
X148381503Y-102348609D01*
X148381503Y-102348609D02*
X148276741Y-102396228D01*
X148276741Y-102396228D02*
X147857693Y-102396228D01*
X148957693Y-102872419D02*
X148957693Y-101872419D01*
X149691027Y-101872419D02*
X149900551Y-101872419D01*
X149900551Y-101872419D02*
X150005313Y-101920038D01*
X150005313Y-101920038D02*
X150110075Y-102015276D01*
X150110075Y-102015276D02*
X150162456Y-102205752D01*
X150162456Y-102205752D02*
X150162456Y-102539085D01*
X150162456Y-102539085D02*
X150110075Y-102729561D01*
X150110075Y-102729561D02*
X150005313Y-102824800D01*
X150005313Y-102824800D02*
X149900551Y-102872419D01*
X149900551Y-102872419D02*
X149691027Y-102872419D01*
X149691027Y-102872419D02*
X149586265Y-102824800D01*
X149586265Y-102824800D02*
X149481503Y-102729561D01*
X149481503Y-102729561D02*
X149429122Y-102539085D01*
X149429122Y-102539085D02*
X149429122Y-102205752D01*
X149429122Y-102205752D02*
X149481503Y-102015276D01*
X149481503Y-102015276D02*
X149586265Y-101920038D01*
X149586265Y-101920038D02*
X149691027Y-101872419D01*
X151105313Y-102205752D02*
X151105313Y-102872419D01*
X150843408Y-101824800D02*
X150581503Y-102539085D01*
X150581503Y-102539085D02*
X151262456Y-102539085D01*
X147333884Y-104420038D02*
X147229122Y-104372419D01*
X147229122Y-104372419D02*
X147071979Y-104372419D01*
X147071979Y-104372419D02*
X146914836Y-104420038D01*
X146914836Y-104420038D02*
X146810074Y-104515276D01*
X146810074Y-104515276D02*
X146757693Y-104610514D01*
X146757693Y-104610514D02*
X146705312Y-104800990D01*
X146705312Y-104800990D02*
X146705312Y-104943847D01*
X146705312Y-104943847D02*
X146757693Y-105134323D01*
X146757693Y-105134323D02*
X146810074Y-105229561D01*
X146810074Y-105229561D02*
X146914836Y-105324800D01*
X146914836Y-105324800D02*
X147071979Y-105372419D01*
X147071979Y-105372419D02*
X147176741Y-105372419D01*
X147176741Y-105372419D02*
X147333884Y-105324800D01*
X147333884Y-105324800D02*
X147386265Y-105277180D01*
X147386265Y-105277180D02*
X147386265Y-104943847D01*
X147386265Y-104943847D02*
X147176741Y-104943847D01*
X147857693Y-105372419D02*
X147857693Y-104372419D01*
X147857693Y-104372419D02*
X148276741Y-104372419D01*
X148276741Y-104372419D02*
X148381503Y-104420038D01*
X148381503Y-104420038D02*
X148433884Y-104467657D01*
X148433884Y-104467657D02*
X148486265Y-104562895D01*
X148486265Y-104562895D02*
X148486265Y-104705752D01*
X148486265Y-104705752D02*
X148433884Y-104800990D01*
X148433884Y-104800990D02*
X148381503Y-104848609D01*
X148381503Y-104848609D02*
X148276741Y-104896228D01*
X148276741Y-104896228D02*
X147857693Y-104896228D01*
X148957693Y-105372419D02*
X148957693Y-104372419D01*
X149691027Y-104372419D02*
X149900551Y-104372419D01*
X149900551Y-104372419D02*
X150005313Y-104420038D01*
X150005313Y-104420038D02*
X150110075Y-104515276D01*
X150110075Y-104515276D02*
X150162456Y-104705752D01*
X150162456Y-104705752D02*
X150162456Y-105039085D01*
X150162456Y-105039085D02*
X150110075Y-105229561D01*
X150110075Y-105229561D02*
X150005313Y-105324800D01*
X150005313Y-105324800D02*
X149900551Y-105372419D01*
X149900551Y-105372419D02*
X149691027Y-105372419D01*
X149691027Y-105372419D02*
X149586265Y-105324800D01*
X149586265Y-105324800D02*
X149481503Y-105229561D01*
X149481503Y-105229561D02*
X149429122Y-105039085D01*
X149429122Y-105039085D02*
X149429122Y-104705752D01*
X149429122Y-104705752D02*
X149481503Y-104515276D01*
X149481503Y-104515276D02*
X149586265Y-104420038D01*
X149586265Y-104420038D02*
X149691027Y-104372419D01*
X150581503Y-104467657D02*
X150633884Y-104420038D01*
X150633884Y-104420038D02*
X150738646Y-104372419D01*
X150738646Y-104372419D02*
X151000551Y-104372419D01*
X151000551Y-104372419D02*
X151105313Y-104420038D01*
X151105313Y-104420038D02*
X151157694Y-104467657D01*
X151157694Y-104467657D02*
X151210075Y-104562895D01*
X151210075Y-104562895D02*
X151210075Y-104658133D01*
X151210075Y-104658133D02*
X151157694Y-104800990D01*
X151157694Y-104800990D02*
X150529122Y-105372419D01*
X150529122Y-105372419D02*
X151210075Y-105372419D01*
X148833884Y-109420038D02*
X148729122Y-109372419D01*
X148729122Y-109372419D02*
X148571979Y-109372419D01*
X148571979Y-109372419D02*
X148414836Y-109420038D01*
X148414836Y-109420038D02*
X148310074Y-109515276D01*
X148310074Y-109515276D02*
X148257693Y-109610514D01*
X148257693Y-109610514D02*
X148205312Y-109800990D01*
X148205312Y-109800990D02*
X148205312Y-109943847D01*
X148205312Y-109943847D02*
X148257693Y-110134323D01*
X148257693Y-110134323D02*
X148310074Y-110229561D01*
X148310074Y-110229561D02*
X148414836Y-110324800D01*
X148414836Y-110324800D02*
X148571979Y-110372419D01*
X148571979Y-110372419D02*
X148676741Y-110372419D01*
X148676741Y-110372419D02*
X148833884Y-110324800D01*
X148833884Y-110324800D02*
X148886265Y-110277180D01*
X148886265Y-110277180D02*
X148886265Y-109943847D01*
X148886265Y-109943847D02*
X148676741Y-109943847D01*
X149357693Y-110372419D02*
X149357693Y-109372419D01*
X149357693Y-109372419D02*
X149986265Y-110372419D01*
X149986265Y-110372419D02*
X149986265Y-109372419D01*
X150510074Y-110372419D02*
X150510074Y-109372419D01*
X150510074Y-109372419D02*
X150771979Y-109372419D01*
X150771979Y-109372419D02*
X150929122Y-109420038D01*
X150929122Y-109420038D02*
X151033884Y-109515276D01*
X151033884Y-109515276D02*
X151086265Y-109610514D01*
X151086265Y-109610514D02*
X151138646Y-109800990D01*
X151138646Y-109800990D02*
X151138646Y-109943847D01*
X151138646Y-109943847D02*
X151086265Y-110134323D01*
X151086265Y-110134323D02*
X151033884Y-110229561D01*
X151033884Y-110229561D02*
X150929122Y-110324800D01*
X150929122Y-110324800D02*
X150771979Y-110372419D01*
X150771979Y-110372419D02*
X150510074Y-110372419D01*
X148152931Y-111872419D02*
X148833884Y-111872419D01*
X148833884Y-111872419D02*
X148467217Y-112253371D01*
X148467217Y-112253371D02*
X148624360Y-112253371D01*
X148624360Y-112253371D02*
X148729122Y-112300990D01*
X148729122Y-112300990D02*
X148781503Y-112348609D01*
X148781503Y-112348609D02*
X148833884Y-112443847D01*
X148833884Y-112443847D02*
X148833884Y-112681942D01*
X148833884Y-112681942D02*
X148781503Y-112777180D01*
X148781503Y-112777180D02*
X148729122Y-112824800D01*
X148729122Y-112824800D02*
X148624360Y-112872419D01*
X148624360Y-112872419D02*
X148310074Y-112872419D01*
X148310074Y-112872419D02*
X148205312Y-112824800D01*
X148205312Y-112824800D02*
X148152931Y-112777180D01*
X149305312Y-112777180D02*
X149357693Y-112824800D01*
X149357693Y-112824800D02*
X149305312Y-112872419D01*
X149305312Y-112872419D02*
X149252931Y-112824800D01*
X149252931Y-112824800D02*
X149305312Y-112777180D01*
X149305312Y-112777180D02*
X149305312Y-112872419D01*
X149724360Y-111872419D02*
X150405313Y-111872419D01*
X150405313Y-111872419D02*
X150038646Y-112253371D01*
X150038646Y-112253371D02*
X150195789Y-112253371D01*
X150195789Y-112253371D02*
X150300551Y-112300990D01*
X150300551Y-112300990D02*
X150352932Y-112348609D01*
X150352932Y-112348609D02*
X150405313Y-112443847D01*
X150405313Y-112443847D02*
X150405313Y-112681942D01*
X150405313Y-112681942D02*
X150352932Y-112777180D01*
X150352932Y-112777180D02*
X150300551Y-112824800D01*
X150300551Y-112824800D02*
X150195789Y-112872419D01*
X150195789Y-112872419D02*
X149881503Y-112872419D01*
X149881503Y-112872419D02*
X149776741Y-112824800D01*
X149776741Y-112824800D02*
X149724360Y-112777180D01*
X150771979Y-112205752D02*
X151033884Y-112872419D01*
X151033884Y-112872419D02*
X151295789Y-112205752D01*
%TO.C,J1*%
D12*
X159620000Y-104880000D02*
X159620000Y-103500000D01*
X161000000Y-104880000D02*
X159620000Y-104880000D01*
X162270000Y-102120000D02*
X167460000Y-102120000D01*
X162270000Y-104880000D02*
X162270000Y-102120000D01*
X162270000Y-104880000D02*
X167460000Y-104880000D01*
X167460000Y-104880000D02*
X167460000Y-102120000D01*
%TO.C,J4*%
X159620000Y-73880000D02*
X159620000Y-72500000D01*
X161000000Y-73880000D02*
X159620000Y-73880000D01*
X162270000Y-71120000D02*
X167460000Y-71120000D01*
X162270000Y-73880000D02*
X162270000Y-71120000D01*
X162270000Y-73880000D02*
X167460000Y-73880000D01*
X167460000Y-73880000D02*
X167460000Y-71120000D01*
%TO.C,J6*%
X118325000Y-125935000D02*
X118325000Y-123285000D01*
X121085000Y-123285000D02*
X118325000Y-123285000D01*
X121085000Y-125935000D02*
X118325000Y-125935000D01*
X121085000Y-125935000D02*
X121085000Y-123285000D01*
X121085000Y-127205000D02*
X121085000Y-128585000D01*
X121085000Y-128585000D02*
X119705000Y-128585000D01*
%TO.C,J2*%
X159620000Y-84380000D02*
X159620000Y-83000000D01*
X161000000Y-84380000D02*
X159620000Y-84380000D01*
X162270000Y-81620000D02*
X167460000Y-81620000D01*
X162270000Y-84380000D02*
X162270000Y-81620000D01*
X162270000Y-84380000D02*
X167460000Y-84380000D01*
X167460000Y-84380000D02*
X167460000Y-81620000D01*
%TO.C,J5*%
X159620000Y-115880000D02*
X159620000Y-114500000D01*
X161000000Y-115880000D02*
X159620000Y-115880000D01*
X162270000Y-113120000D02*
X167460000Y-113120000D01*
X162270000Y-115880000D02*
X162270000Y-113120000D01*
X162270000Y-115880000D02*
X167460000Y-115880000D01*
X167460000Y-115880000D02*
X167460000Y-113120000D01*
%TO.C,J3*%
X159620000Y-94380000D02*
X159620000Y-93000000D01*
X161000000Y-94380000D02*
X159620000Y-94380000D01*
X162270000Y-91620000D02*
X167460000Y-91620000D01*
X162270000Y-94380000D02*
X162270000Y-91620000D01*
X162270000Y-94380000D02*
X167460000Y-94380000D01*
X167460000Y-94380000D02*
X167460000Y-91620000D01*
%TO.C,R2*%
X129630000Y-123500000D02*
X130580000Y-123500000D01*
X135370000Y-123500000D02*
X134420000Y-123500000D01*
X130580000Y-122580000D02*
X134420000Y-122580000D01*
X134420000Y-124420000D01*
X130580000Y-124420000D01*
X130580000Y-122580000D01*
%TO.C,R1*%
X145440000Y-127000000D02*
X146390000Y-127000000D01*
X151180000Y-127000000D02*
X150230000Y-127000000D01*
X146390000Y-126080000D02*
X150230000Y-126080000D01*
X150230000Y-127920000D01*
X146390000Y-127920000D01*
X146390000Y-126080000D01*
%TO.C,J8*%
X155580000Y-125620000D02*
X155580000Y-128380000D01*
X160770000Y-125620000D02*
X155580000Y-125620000D01*
X160770000Y-125620000D02*
X160770000Y-128380000D01*
X160770000Y-128380000D02*
X155580000Y-128380000D01*
X162040000Y-125620000D02*
X163420000Y-125620000D01*
X163420000Y-125620000D02*
X163420000Y-127000000D01*
%TO.C,chopper_head1*%
D13*
X125600000Y-69100000D02*
X153900000Y-69100000D01*
X153900000Y-120600000D01*
X125600000Y-120600000D01*
X125600000Y-69100000D01*
D11*
X136120000Y-117360000D02*
X143740000Y-117360000D01*
X143740000Y-121614179D01*
X136120000Y-121614179D01*
X136120000Y-117360000D01*
%TD*%
M02*
