M48
; DRILL file KiCad 10.0.5 date 2026-07-26T20:00:46
; FORMAT={-:-/ absolute / metric / decimal}
; #@! TF.CreationDate,2026-07-26T20:00:46-07:00
; #@! TF.GenerationSoftware,Kicad,Pcbnew,10.0.5
; #@! TF.FileFunction,Plated,1,2,PTH
FMAT,2
METRIC
; #@! TA.AperFunction,Plated,PTH,ComponentDrill
T1C0.700
; #@! TA.AperFunction,Plated,PTH,ComponentDrill
T2C0.800
; #@! TA.AperFunction,Plated,PTH,ComponentDrill
T3C1.000
%
G90
G05
T1
X128.69Y-123.5
X136.31Y-123.5
X144.5Y-127.0
X152.12Y-127.0
T2
X127.002Y-76.96
X127.002Y-79.5
X127.002Y-82.04
X127.002Y-84.58
X127.002Y-87.12
X127.002Y-89.66
X127.002Y-92.2
X127.002Y-94.74
X127.002Y-97.28
X127.002Y-99.82
X127.002Y-102.36
X127.002Y-104.9
X127.002Y-107.44
X127.002Y-109.98
X127.002Y-112.52
X152.402Y-76.96
X152.402Y-79.5
X152.402Y-82.04
X152.402Y-84.58
X152.402Y-87.12
X152.402Y-89.66
X152.402Y-92.2
X152.402Y-94.74
X152.402Y-97.28
X152.402Y-99.82
X152.402Y-102.36
X152.402Y-104.9
X152.402Y-107.44
X152.402Y-109.98
X152.402Y-112.52
T3
X119.705Y-124.665
X119.705Y-127.205
X156.96Y-127.0
X159.5Y-127.0
X161.0Y-72.5
X161.0Y-83.0
X161.0Y-93.0
X161.0Y-103.5
X161.0Y-114.5
X162.04Y-127.0
X163.54Y-72.5
X163.54Y-83.0
X163.54Y-93.0
X163.54Y-103.5
X163.54Y-114.5
X166.08Y-72.5
X166.08Y-83.0
X166.08Y-93.0
X166.08Y-103.5
X166.08Y-114.5
M30
