%TF.GenerationSoftware,KiCad,Pcbnew,10.0.5*%
%TF.CreationDate,2026-07-26T20:00:49-07:00*%
%TF.ProjectId,Chopper_head,43686f70-7065-4725-9f68-6561642e6b69,rev?*%
%TF.SameCoordinates,Original*%
%TF.FileFunction,Soldermask,Top*%
%TF.FilePolarity,Negative*%
%FSLAX46Y46*%
G04 Gerber Fmt 4.6, Leading zero omitted, Abs format (unit mm)*
G04 Created by KiCad (PCBNEW 10.0.5) date 2026-07-26 20:00:49*
%MOMM*%
%LPD*%
G01*
G04 APERTURE LIST*
%ADD10R,1.700000X1.700000*%
%ADD11C,1.700000*%
%ADD12C,1.400000*%
%ADD13O,1.900000X1.524000*%
G04 APERTURE END LIST*
D10*
%TO.C,J1*%
X161000000Y-103500000D03*
D11*
X163540000Y-103500000D03*
X166080000Y-103500000D03*
%TD*%
D10*
%TO.C,J4*%
X161000000Y-72500000D03*
D11*
X163540000Y-72500000D03*
X166080000Y-72500000D03*
%TD*%
D10*
%TO.C,J6*%
X119705000Y-127205000D03*
D11*
X119705000Y-124665000D03*
%TD*%
D10*
%TO.C,J2*%
X161000000Y-83000000D03*
D11*
X163540000Y-83000000D03*
X166080000Y-83000000D03*
%TD*%
D10*
%TO.C,J5*%
X161000000Y-114500000D03*
D11*
X163540000Y-114500000D03*
X166080000Y-114500000D03*
%TD*%
D10*
%TO.C,J3*%
X161000000Y-93000000D03*
D11*
X163540000Y-93000000D03*
X166080000Y-93000000D03*
%TD*%
D12*
%TO.C,R2*%
X136310000Y-123500000D03*
X128690000Y-123500000D03*
%TD*%
%TO.C,R1*%
X152120000Y-127000000D03*
X144500000Y-127000000D03*
%TD*%
D10*
%TO.C,J8*%
X162040000Y-127000000D03*
D11*
X159500000Y-127000000D03*
X156960000Y-127000000D03*
%TD*%
D13*
%TO.C,chopper_head1*%
X127002460Y-112519813D03*
X127002460Y-109979813D03*
X127002460Y-107439813D03*
X127002460Y-104899813D03*
X127002460Y-102359813D03*
X127002460Y-99819813D03*
X127002460Y-97279813D03*
X127002460Y-94739813D03*
X127002460Y-92199813D03*
X127002460Y-89659813D03*
X127002460Y-87119813D03*
X127002460Y-84579813D03*
X127002460Y-82039813D03*
X127002460Y-79499813D03*
X127002460Y-76959813D03*
X152402460Y-112519813D03*
X152402460Y-109979813D03*
X152402460Y-107439813D03*
X152402460Y-104899813D03*
X152402460Y-102359813D03*
X152402460Y-99819813D03*
X152402460Y-97279813D03*
X152402460Y-94739813D03*
X152402460Y-92199813D03*
X152402460Y-89659813D03*
X152402460Y-87119813D03*
X152402460Y-84579813D03*
X152402460Y-82039813D03*
X152402460Y-79499813D03*
X152402460Y-76959813D03*
%TD*%
M02*
